%TF.GenerationSoftware,KiCad,Pcbnew,10.0.0*%
%TF.CreationDate,2026-06-01T11:45:50+08:00*%
%TF.ProjectId,pcb_Crimp-ER,7063625f-4372-4696-9d70-2d45522e6b69,rev?*%
%TF.SameCoordinates,Original*%
%TF.FileFunction,Legend,Bot*%
%TF.FilePolarity,Positive*%
%FSLAX46Y46*%
G04 Gerber Fmt 4.6, Leading zero omitted, Abs format (unit mm)*
G04 Created by KiCad (PCBNEW 10.0.0) date 2026-06-01 11:45:50*
%MOMM*%
%LPD*%
G01*
G04 APERTURE LIST*
%ADD10C,0.150000*%
G04 APERTURE END LIST*
D10*
X170284649Y-123478152D02*
X170284649Y-124478152D01*
X170284649Y-124097200D02*
X170379887Y-124144819D01*
X170379887Y-124144819D02*
X170570363Y-124144819D01*
X170570363Y-124144819D02*
X170665601Y-124097200D01*
X170665601Y-124097200D02*
X170713220Y-124049580D01*
X170713220Y-124049580D02*
X170760839Y-123954342D01*
X170760839Y-123954342D02*
X170760839Y-123668628D01*
X170760839Y-123668628D02*
X170713220Y-123573390D01*
X170713220Y-123573390D02*
X170665601Y-123525771D01*
X170665601Y-123525771D02*
X170570363Y-123478152D01*
X170570363Y-123478152D02*
X170379887Y-123478152D01*
X170379887Y-123478152D02*
X170284649Y-123525771D01*
X169903696Y-123478152D02*
X169665601Y-124144819D01*
X169427506Y-123478152D02*
X169665601Y-124144819D01*
X169665601Y-124144819D02*
X169760839Y-124382914D01*
X169760839Y-124382914D02*
X169808458Y-124430533D01*
X169808458Y-124430533D02*
X169903696Y-124478152D01*
X169094172Y-124097200D02*
X168998934Y-124144819D01*
X168998934Y-124144819D02*
X168808458Y-124144819D01*
X168808458Y-124144819D02*
X168713220Y-124097200D01*
X168713220Y-124097200D02*
X168665601Y-124001961D01*
X168665601Y-124001961D02*
X168665601Y-123954342D01*
X168665601Y-123954342D02*
X168713220Y-123859104D01*
X168713220Y-123859104D02*
X168808458Y-123811485D01*
X168808458Y-123811485D02*
X168951315Y-123811485D01*
X168951315Y-123811485D02*
X169046553Y-123763866D01*
X169046553Y-123763866D02*
X169094172Y-123668628D01*
X169094172Y-123668628D02*
X169094172Y-123621009D01*
X169094172Y-123621009D02*
X169046553Y-123525771D01*
X169046553Y-123525771D02*
X168951315Y-123478152D01*
X168951315Y-123478152D02*
X168808458Y-123478152D01*
X168808458Y-123478152D02*
X168713220Y-123525771D01*
X168237029Y-123478152D02*
X168237029Y-124478152D01*
X168237029Y-123525771D02*
X168141791Y-123478152D01*
X168141791Y-123478152D02*
X167951315Y-123478152D01*
X167951315Y-123478152D02*
X167856077Y-123525771D01*
X167856077Y-123525771D02*
X167808458Y-123573390D01*
X167808458Y-123573390D02*
X167760839Y-123668628D01*
X167760839Y-123668628D02*
X167760839Y-123954342D01*
X167760839Y-123954342D02*
X167808458Y-124049580D01*
X167808458Y-124049580D02*
X167856077Y-124097200D01*
X167856077Y-124097200D02*
X167951315Y-124144819D01*
X167951315Y-124144819D02*
X168141791Y-124144819D01*
X168141791Y-124144819D02*
X168237029Y-124097200D01*
X166903696Y-124144819D02*
X166903696Y-123621009D01*
X166903696Y-123621009D02*
X166951315Y-123525771D01*
X166951315Y-123525771D02*
X167046553Y-123478152D01*
X167046553Y-123478152D02*
X167237029Y-123478152D01*
X167237029Y-123478152D02*
X167332267Y-123525771D01*
X166903696Y-124097200D02*
X166998934Y-124144819D01*
X166998934Y-124144819D02*
X167237029Y-124144819D01*
X167237029Y-124144819D02*
X167332267Y-124097200D01*
X167332267Y-124097200D02*
X167379886Y-124001961D01*
X167379886Y-124001961D02*
X167379886Y-123906723D01*
X167379886Y-123906723D02*
X167332267Y-123811485D01*
X167332267Y-123811485D02*
X167237029Y-123763866D01*
X167237029Y-123763866D02*
X166998934Y-123763866D01*
X166998934Y-123763866D02*
X166903696Y-123716247D01*
X166427505Y-124144819D02*
X166427505Y-123478152D01*
X166427505Y-123668628D02*
X166379886Y-123573390D01*
X166379886Y-123573390D02*
X166332267Y-123525771D01*
X166332267Y-123525771D02*
X166237029Y-123478152D01*
X166237029Y-123478152D02*
X166141791Y-123478152D01*
X165808457Y-124144819D02*
X165808457Y-123144819D01*
X165713219Y-123763866D02*
X165427505Y-124144819D01*
X165427505Y-123478152D02*
X165808457Y-123859104D01*
X165094171Y-123478152D02*
X164856076Y-124144819D01*
X164617981Y-123478152D02*
X164856076Y-124144819D01*
X164856076Y-124144819D02*
X164951314Y-124382914D01*
X164951314Y-124382914D02*
X164998933Y-124430533D01*
X164998933Y-124430533D02*
X165094171Y-124478152D01*
X163617981Y-123668628D02*
X163665600Y-123621009D01*
X163665600Y-123621009D02*
X163760838Y-123573390D01*
X163760838Y-123573390D02*
X163856076Y-123573390D01*
X163856076Y-123573390D02*
X163951314Y-123621009D01*
X163951314Y-123621009D02*
X163998933Y-123668628D01*
X163998933Y-123668628D02*
X164046552Y-123763866D01*
X164046552Y-123763866D02*
X164046552Y-123859104D01*
X164046552Y-123859104D02*
X163998933Y-123954342D01*
X163998933Y-123954342D02*
X163951314Y-124001961D01*
X163951314Y-124001961D02*
X163856076Y-124049580D01*
X163856076Y-124049580D02*
X163760838Y-124049580D01*
X163760838Y-124049580D02*
X163665600Y-124001961D01*
X163665600Y-124001961D02*
X163617981Y-123954342D01*
X163617981Y-123573390D02*
X163617981Y-123954342D01*
X163617981Y-123954342D02*
X163570362Y-124001961D01*
X163570362Y-124001961D02*
X163522743Y-124001961D01*
X163522743Y-124001961D02*
X163427504Y-123954342D01*
X163427504Y-123954342D02*
X163379885Y-123859104D01*
X163379885Y-123859104D02*
X163379885Y-123621009D01*
X163379885Y-123621009D02*
X163475124Y-123478152D01*
X163475124Y-123478152D02*
X163617981Y-123382914D01*
X163617981Y-123382914D02*
X163808457Y-123335295D01*
X163808457Y-123335295D02*
X163998933Y-123382914D01*
X163998933Y-123382914D02*
X164141790Y-123478152D01*
X164141790Y-123478152D02*
X164237028Y-123621009D01*
X164237028Y-123621009D02*
X164284647Y-123811485D01*
X164284647Y-123811485D02*
X164237028Y-124001961D01*
X164237028Y-124001961D02*
X164141790Y-124144819D01*
X164141790Y-124144819D02*
X163998933Y-124240057D01*
X163998933Y-124240057D02*
X163808457Y-124287676D01*
X163808457Y-124287676D02*
X163617981Y-124240057D01*
X163617981Y-124240057D02*
X163475124Y-124144819D01*
X162522743Y-123478152D02*
X162522743Y-124287676D01*
X162522743Y-124287676D02*
X162570362Y-124382914D01*
X162570362Y-124382914D02*
X162617981Y-124430533D01*
X162617981Y-124430533D02*
X162713219Y-124478152D01*
X162713219Y-124478152D02*
X162856076Y-124478152D01*
X162856076Y-124478152D02*
X162951314Y-124430533D01*
X162522743Y-124097200D02*
X162617981Y-124144819D01*
X162617981Y-124144819D02*
X162808457Y-124144819D01*
X162808457Y-124144819D02*
X162903695Y-124097200D01*
X162903695Y-124097200D02*
X162951314Y-124049580D01*
X162951314Y-124049580D02*
X162998933Y-123954342D01*
X162998933Y-123954342D02*
X162998933Y-123668628D01*
X162998933Y-123668628D02*
X162951314Y-123573390D01*
X162951314Y-123573390D02*
X162903695Y-123525771D01*
X162903695Y-123525771D02*
X162808457Y-123478152D01*
X162808457Y-123478152D02*
X162617981Y-123478152D01*
X162617981Y-123478152D02*
X162522743Y-123525771D01*
X162046552Y-124144819D02*
X162046552Y-123478152D01*
X162046552Y-123573390D02*
X161998933Y-123525771D01*
X161998933Y-123525771D02*
X161903695Y-123478152D01*
X161903695Y-123478152D02*
X161760838Y-123478152D01*
X161760838Y-123478152D02*
X161665600Y-123525771D01*
X161665600Y-123525771D02*
X161617981Y-123621009D01*
X161617981Y-123621009D02*
X161617981Y-124144819D01*
X161617981Y-123621009D02*
X161570362Y-123525771D01*
X161570362Y-123525771D02*
X161475124Y-123478152D01*
X161475124Y-123478152D02*
X161332267Y-123478152D01*
X161332267Y-123478152D02*
X161237028Y-123525771D01*
X161237028Y-123525771D02*
X161189409Y-123621009D01*
X161189409Y-123621009D02*
X161189409Y-124144819D01*
X160284648Y-124144819D02*
X160284648Y-123621009D01*
X160284648Y-123621009D02*
X160332267Y-123525771D01*
X160332267Y-123525771D02*
X160427505Y-123478152D01*
X160427505Y-123478152D02*
X160617981Y-123478152D01*
X160617981Y-123478152D02*
X160713219Y-123525771D01*
X160284648Y-124097200D02*
X160379886Y-124144819D01*
X160379886Y-124144819D02*
X160617981Y-124144819D01*
X160617981Y-124144819D02*
X160713219Y-124097200D01*
X160713219Y-124097200D02*
X160760838Y-124001961D01*
X160760838Y-124001961D02*
X160760838Y-123906723D01*
X160760838Y-123906723D02*
X160713219Y-123811485D01*
X160713219Y-123811485D02*
X160617981Y-123763866D01*
X160617981Y-123763866D02*
X160379886Y-123763866D01*
X160379886Y-123763866D02*
X160284648Y-123716247D01*
X159808457Y-124144819D02*
X159808457Y-123478152D01*
X159808457Y-123144819D02*
X159856076Y-123192438D01*
X159856076Y-123192438D02*
X159808457Y-123240057D01*
X159808457Y-123240057D02*
X159760838Y-123192438D01*
X159760838Y-123192438D02*
X159808457Y-123144819D01*
X159808457Y-123144819D02*
X159808457Y-123240057D01*
X159189410Y-124144819D02*
X159284648Y-124097200D01*
X159284648Y-124097200D02*
X159332267Y-124001961D01*
X159332267Y-124001961D02*
X159332267Y-123144819D01*
X158808457Y-124049580D02*
X158760838Y-124097200D01*
X158760838Y-124097200D02*
X158808457Y-124144819D01*
X158808457Y-124144819D02*
X158856076Y-124097200D01*
X158856076Y-124097200D02*
X158808457Y-124049580D01*
X158808457Y-124049580D02*
X158808457Y-124144819D01*
X157903696Y-124097200D02*
X157998934Y-124144819D01*
X157998934Y-124144819D02*
X158189410Y-124144819D01*
X158189410Y-124144819D02*
X158284648Y-124097200D01*
X158284648Y-124097200D02*
X158332267Y-124049580D01*
X158332267Y-124049580D02*
X158379886Y-123954342D01*
X158379886Y-123954342D02*
X158379886Y-123668628D01*
X158379886Y-123668628D02*
X158332267Y-123573390D01*
X158332267Y-123573390D02*
X158284648Y-123525771D01*
X158284648Y-123525771D02*
X158189410Y-123478152D01*
X158189410Y-123478152D02*
X157998934Y-123478152D01*
X157998934Y-123478152D02*
X157903696Y-123525771D01*
X157332267Y-124144819D02*
X157427505Y-124097200D01*
X157427505Y-124097200D02*
X157475124Y-124049580D01*
X157475124Y-124049580D02*
X157522743Y-123954342D01*
X157522743Y-123954342D02*
X157522743Y-123668628D01*
X157522743Y-123668628D02*
X157475124Y-123573390D01*
X157475124Y-123573390D02*
X157427505Y-123525771D01*
X157427505Y-123525771D02*
X157332267Y-123478152D01*
X157332267Y-123478152D02*
X157189410Y-123478152D01*
X157189410Y-123478152D02*
X157094172Y-123525771D01*
X157094172Y-123525771D02*
X157046553Y-123573390D01*
X157046553Y-123573390D02*
X156998934Y-123668628D01*
X156998934Y-123668628D02*
X156998934Y-123954342D01*
X156998934Y-123954342D02*
X157046553Y-124049580D01*
X157046553Y-124049580D02*
X157094172Y-124097200D01*
X157094172Y-124097200D02*
X157189410Y-124144819D01*
X157189410Y-124144819D02*
X157332267Y-124144819D01*
X156570362Y-124144819D02*
X156570362Y-123478152D01*
X156570362Y-123573390D02*
X156522743Y-123525771D01*
X156522743Y-123525771D02*
X156427505Y-123478152D01*
X156427505Y-123478152D02*
X156284648Y-123478152D01*
X156284648Y-123478152D02*
X156189410Y-123525771D01*
X156189410Y-123525771D02*
X156141791Y-123621009D01*
X156141791Y-123621009D02*
X156141791Y-124144819D01*
X156141791Y-123621009D02*
X156094172Y-123525771D01*
X156094172Y-123525771D02*
X155998934Y-123478152D01*
X155998934Y-123478152D02*
X155856077Y-123478152D01*
X155856077Y-123478152D02*
X155760838Y-123525771D01*
X155760838Y-123525771D02*
X155713219Y-123621009D01*
X155713219Y-123621009D02*
X155713219Y-124144819D01*
G36*
X170930767Y-117031697D02*
G01*
X170967798Y-117050766D01*
X170989102Y-117079834D01*
X170996755Y-117122156D01*
X170986432Y-117173312D01*
X170958957Y-117201418D01*
X170909926Y-117211793D01*
X170834333Y-117201657D01*
X170775593Y-117194818D01*
X170715639Y-117206756D01*
X170673175Y-117240905D01*
X170644366Y-117302431D01*
X170632833Y-117404867D01*
X170632833Y-118527529D01*
X170644366Y-118629965D01*
X170673175Y-118691491D01*
X170715639Y-118725640D01*
X170775593Y-118737578D01*
X170834333Y-118733792D01*
X170909926Y-118728053D01*
X170943534Y-118734614D01*
X170971598Y-118754309D01*
X170990365Y-118783299D01*
X170996755Y-118819033D01*
X170983908Y-118871832D01*
X170947168Y-118903232D01*
X170876343Y-118915631D01*
X170853995Y-118915631D01*
X170834333Y-118912700D01*
X170700000Y-118892062D01*
X170548813Y-118883147D01*
X170344382Y-118892062D01*
X170151186Y-118909769D01*
X170025157Y-118915631D01*
X169872183Y-118907080D01*
X169735790Y-118882536D01*
X169613825Y-118843218D01*
X169504431Y-118789724D01*
X169395804Y-118710008D01*
X169301763Y-118603720D01*
X169221720Y-118466591D01*
X169164958Y-118316945D01*
X169130064Y-118153154D01*
X169118039Y-117972732D01*
X169118121Y-117971266D01*
X169367166Y-117971266D01*
X169379755Y-118149644D01*
X169415402Y-118302341D01*
X169472033Y-118433539D01*
X169549127Y-118546580D01*
X169630661Y-118622008D01*
X169735177Y-118678291D01*
X169868024Y-118714752D01*
X170036392Y-118728053D01*
X170211424Y-118724204D01*
X170271598Y-118716939D01*
X170328293Y-118695789D01*
X170366166Y-118663790D01*
X170389254Y-118620051D01*
X170397627Y-118560502D01*
X170397627Y-117379344D01*
X170390377Y-117302760D01*
X170372922Y-117259258D01*
X170348656Y-117236950D01*
X170278576Y-117220439D01*
X170078401Y-117211793D01*
X169911493Y-117221597D01*
X169781646Y-117248063D01*
X169691081Y-117284181D01*
X169611071Y-117336853D01*
X169540174Y-117407318D01*
X169477808Y-117498046D01*
X169418082Y-117631677D01*
X169380469Y-117787901D01*
X169367166Y-117971266D01*
X169118121Y-117971266D01*
X169126688Y-117817654D01*
X169151772Y-117676146D01*
X169192396Y-117546495D01*
X169248220Y-117427215D01*
X169321140Y-117315868D01*
X169404074Y-117225053D01*
X169497442Y-117152540D01*
X169602372Y-117096999D01*
X169718569Y-117058307D01*
X169858949Y-117033241D01*
X170027965Y-117024214D01*
X170168039Y-117029344D01*
X170350000Y-117047173D01*
X170506803Y-117054745D01*
X170685956Y-117044609D01*
X170834333Y-117026779D01*
X170870725Y-117024214D01*
X170930767Y-117031697D01*
G37*
G36*
X168380750Y-117467947D02*
G01*
X168506879Y-117507934D01*
X168618503Y-117573496D01*
X168718091Y-117666573D01*
X168796927Y-117777296D01*
X168854356Y-117904301D01*
X168890250Y-118050596D01*
X168902861Y-118220027D01*
X168890811Y-118385929D01*
X168856779Y-118526879D01*
X168802803Y-118647065D01*
X168729326Y-118749790D01*
X168636048Y-118835240D01*
X168529021Y-118896149D01*
X168405518Y-118933737D01*
X168261601Y-118946894D01*
X168146246Y-118937918D01*
X168038807Y-118911504D01*
X167937722Y-118867723D01*
X167841748Y-118805722D01*
X167756542Y-118727767D01*
X167700067Y-118648928D01*
X167667606Y-118567923D01*
X167656856Y-118482588D01*
X167669135Y-118422017D01*
X167701876Y-118388673D01*
X167760415Y-118376343D01*
X167803995Y-118384131D01*
X167833660Y-118405698D01*
X167852861Y-118442899D01*
X167878018Y-118523377D01*
X167905910Y-118586793D01*
X167949531Y-118642912D01*
X168011130Y-118692759D01*
X168081628Y-118729771D01*
X168156269Y-118751849D01*
X168236444Y-118759316D01*
X168327280Y-118750394D01*
X168408563Y-118724391D01*
X168482358Y-118681277D01*
X168550052Y-118619487D01*
X168604617Y-118546103D01*
X168643701Y-118464504D01*
X168667742Y-118373113D01*
X168676081Y-118269853D01*
X168664968Y-118237613D01*
X168650204Y-118230911D01*
X168617219Y-118227843D01*
X167726831Y-118227843D01*
X167667965Y-118220367D01*
X167645621Y-118204274D01*
X167636381Y-118170446D01*
X167631577Y-118074703D01*
X167637787Y-118001796D01*
X167858478Y-118001796D01*
X167871201Y-118029271D01*
X167917219Y-118040265D01*
X168586444Y-118040265D01*
X168634877Y-118029115D01*
X168647993Y-118001796D01*
X168634547Y-117915651D01*
X168593301Y-117833683D01*
X168519277Y-117753035D01*
X168428555Y-117690239D01*
X168334150Y-117653806D01*
X168233635Y-117641660D01*
X168137097Y-117653601D01*
X168050286Y-117688853D01*
X167970464Y-117748883D01*
X167907416Y-117825986D01*
X167870806Y-117909353D01*
X167858478Y-118001796D01*
X167637787Y-118001796D01*
X167642863Y-117942211D01*
X167675369Y-117825651D01*
X167728278Y-117722109D01*
X167802424Y-117629448D01*
X167893181Y-117552992D01*
X167994241Y-117498757D01*
X168107688Y-117465578D01*
X168236444Y-117454082D01*
X168380750Y-117467947D01*
G37*
G36*
X166834856Y-117454082D02*
G01*
X166713050Y-117465491D01*
X166609730Y-117497956D01*
X166521249Y-117550436D01*
X166521249Y-117539567D01*
X166510196Y-117481022D01*
X166481470Y-117449719D01*
X166431612Y-117438450D01*
X166378907Y-117449071D01*
X166349966Y-117477327D01*
X166339288Y-117527721D01*
X166344905Y-117611496D01*
X166356018Y-117723115D01*
X166346249Y-117820935D01*
X166336479Y-117918510D01*
X166347959Y-117980126D01*
X166377660Y-118012895D01*
X166428925Y-118024633D01*
X166480083Y-118014212D01*
X166509218Y-117986135D01*
X166521249Y-117935851D01*
X166524057Y-117844260D01*
X166535111Y-117793525D01*
X166565686Y-117746505D01*
X166620655Y-117701378D01*
X166685518Y-117668679D01*
X166758208Y-117648615D01*
X166840474Y-117641660D01*
X166924097Y-117649425D01*
X166995122Y-117671525D01*
X167056018Y-117707240D01*
X167105296Y-117755841D01*
X167133406Y-117809471D01*
X167142847Y-117870394D01*
X167133631Y-117933979D01*
X167107262Y-117985059D01*
X167062640Y-118026789D01*
X166994943Y-118059838D01*
X166896406Y-118082274D01*
X166734106Y-118104623D01*
X166569415Y-118138845D01*
X166449100Y-118187224D01*
X166363459Y-118246815D01*
X166305231Y-118316936D01*
X166270263Y-118399320D01*
X166258077Y-118497854D01*
X166268004Y-118594864D01*
X166296725Y-118679794D01*
X166344135Y-118755232D01*
X166412072Y-118822819D01*
X166491736Y-118875370D01*
X166583881Y-118914004D01*
X166690768Y-118938317D01*
X166815195Y-118946894D01*
X166929829Y-118938364D01*
X167034152Y-118913530D01*
X167129897Y-118872871D01*
X167218440Y-118815980D01*
X167215631Y-118869347D01*
X167227081Y-118927237D01*
X167257339Y-118958783D01*
X167310886Y-118970341D01*
X167356999Y-118962849D01*
X167387654Y-118942566D01*
X167407022Y-118908654D01*
X167414445Y-118855303D01*
X167397714Y-118709368D01*
X167392096Y-118630844D01*
X167403332Y-118504692D01*
X167414445Y-118412002D01*
X167403524Y-118355423D01*
X167374918Y-118324898D01*
X167324808Y-118313817D01*
X167273774Y-118322037D01*
X167250680Y-118341660D01*
X167240035Y-118380870D01*
X167232484Y-118489305D01*
X167217917Y-118562459D01*
X167177611Y-118626495D01*
X167106454Y-118684211D01*
X167021148Y-118724435D01*
X166917922Y-118750110D01*
X166792847Y-118759316D01*
X166703700Y-118750992D01*
X166629069Y-118727443D01*
X166566067Y-118689584D01*
X166515475Y-118637973D01*
X166486305Y-118580221D01*
X166476430Y-118513852D01*
X166486997Y-118448501D01*
X166517702Y-118395418D01*
X166571092Y-118351398D01*
X166654481Y-118316411D01*
X166778803Y-118293545D01*
X166970911Y-118264322D01*
X167114192Y-118225729D01*
X167218440Y-118180582D01*
X167283550Y-118132708D01*
X167329906Y-118070891D01*
X167359085Y-117992294D01*
X167369626Y-117892009D01*
X167360050Y-117797570D01*
X167332347Y-117714845D01*
X167286652Y-117641344D01*
X167221249Y-117575471D01*
X167144356Y-117523920D01*
X167055819Y-117486141D01*
X166953529Y-117462430D01*
X166834856Y-117454082D01*
G37*
G36*
X165594469Y-118087037D02*
G01*
X165594469Y-118451570D01*
X165591660Y-118617044D01*
X165573468Y-118696284D01*
X165547866Y-118732513D01*
X165516067Y-118743196D01*
X165446092Y-118726831D01*
X165404082Y-118720237D01*
X165342301Y-118731728D01*
X165309467Y-118761438D01*
X165297714Y-118812683D01*
X165306156Y-118848392D01*
X165332763Y-118879849D01*
X165371292Y-118900510D01*
X165420935Y-118907815D01*
X165556734Y-118896946D01*
X165692533Y-118885956D01*
X165854954Y-118895725D01*
X166000523Y-118907815D01*
X166065802Y-118895881D01*
X166100256Y-118865208D01*
X166112508Y-118812683D01*
X166101474Y-118760463D01*
X166071598Y-118731218D01*
X166017254Y-118720237D01*
X165951552Y-118730373D01*
X165885729Y-118740387D01*
X165852972Y-118726995D01*
X165824790Y-118677509D01*
X165804518Y-118561235D01*
X165804518Y-118317602D01*
X165804518Y-118088014D01*
X165804518Y-117844382D01*
X165824997Y-117730672D01*
X165854046Y-117681585D01*
X165888538Y-117668039D01*
X165951552Y-117678297D01*
X166011758Y-117688555D01*
X166069918Y-117677421D01*
X166101190Y-117648341D01*
X166112508Y-117597575D01*
X166104994Y-117555757D01*
X166084113Y-117527092D01*
X166047899Y-117508329D01*
X165989288Y-117500976D01*
X165913695Y-117504152D01*
X165798900Y-117516852D01*
X165730390Y-117508914D01*
X165661758Y-117500976D01*
X165617985Y-117512254D01*
X165591296Y-117545265D01*
X165580547Y-117610397D01*
X165583356Y-117643981D01*
X165586165Y-117677686D01*
X165591660Y-117851465D01*
X165594469Y-118087037D01*
G37*
G36*
X165740160Y-117352477D02*
G01*
X165799869Y-117340930D01*
X165850802Y-117306071D01*
X165885455Y-117254886D01*
X165896964Y-117194696D01*
X165885414Y-117134863D01*
X165850802Y-117084909D01*
X165799973Y-117051101D01*
X165740160Y-117039846D01*
X165680368Y-117051105D01*
X165629640Y-117084909D01*
X165594933Y-117134873D01*
X165583356Y-117194696D01*
X165594891Y-117254877D01*
X165629640Y-117306071D01*
X165680472Y-117340926D01*
X165740160Y-117352477D01*
G37*
G36*
X164150881Y-117216752D02*
G01*
X164235327Y-117250827D01*
X164294742Y-117303390D01*
X164333750Y-117376696D01*
X164351762Y-117477529D01*
X164442227Y-117459534D01*
X164516992Y-117454082D01*
X164626318Y-117462469D01*
X164722769Y-117486583D01*
X164808502Y-117525604D01*
X164885188Y-117579745D01*
X164950370Y-117647685D01*
X164995647Y-117721830D01*
X165022883Y-117803598D01*
X165032222Y-117895184D01*
X165023857Y-117980267D01*
X164999539Y-118055926D01*
X164959316Y-118124162D01*
X165064485Y-118171827D01*
X165132751Y-118231441D01*
X165172475Y-118303480D01*
X165186217Y-118392219D01*
X165173203Y-118472676D01*
X165134478Y-118542494D01*
X165066170Y-118604899D01*
X164959316Y-118660275D01*
X165057013Y-118707075D01*
X165127264Y-118761946D01*
X165175328Y-118824730D01*
X165204186Y-118896894D01*
X165214183Y-118981332D01*
X165202767Y-119073692D01*
X165169518Y-119153913D01*
X165113535Y-119225020D01*
X165030879Y-119288468D01*
X164938575Y-119334195D01*
X164826155Y-119369220D01*
X164689867Y-119391993D01*
X164525418Y-119400209D01*
X164361683Y-119391589D01*
X164224512Y-119367558D01*
X164109922Y-119330315D01*
X164014462Y-119281263D01*
X163929318Y-119214022D01*
X163871538Y-119139010D01*
X163837200Y-119054697D01*
X163826609Y-118967777D01*
X164038154Y-118967777D01*
X164051519Y-119034561D01*
X164092445Y-119092985D01*
X164168335Y-119145830D01*
X164257792Y-119180745D01*
X164373787Y-119204018D01*
X164522609Y-119212630D01*
X164663711Y-119204255D01*
X164774750Y-119181512D01*
X164861374Y-119147173D01*
X164934286Y-119095340D01*
X164974194Y-119036523D01*
X164987404Y-118967777D01*
X164974021Y-118899146D01*
X164933372Y-118839867D01*
X164858688Y-118787037D01*
X164770087Y-118752167D01*
X164654601Y-118728874D01*
X164505757Y-118720237D01*
X164358760Y-118728778D01*
X164246282Y-118751667D01*
X164161374Y-118785694D01*
X164090513Y-118837416D01*
X164051268Y-118897073D01*
X164038154Y-118967777D01*
X163826609Y-118967777D01*
X163825418Y-118958007D01*
X163835244Y-118877394D01*
X163864600Y-118802516D01*
X163915055Y-118731350D01*
X163979887Y-118671597D01*
X164060179Y-118622061D01*
X164158565Y-118582972D01*
X164269988Y-118556737D01*
X164411767Y-118539144D01*
X164589776Y-118532658D01*
X164623360Y-118532658D01*
X164673796Y-118532658D01*
X164690648Y-118532658D01*
X164817903Y-118523989D01*
X164899402Y-118502364D01*
X164948692Y-118472505D01*
X164975574Y-118435950D01*
X164984595Y-118390509D01*
X164976879Y-118347006D01*
X164953820Y-118309787D01*
X164920203Y-118283786D01*
X164883845Y-118275593D01*
X164851780Y-118279929D01*
X164808251Y-118295254D01*
X164696306Y-118336875D01*
X164590312Y-118360787D01*
X164489026Y-118368527D01*
X164381267Y-118360004D01*
X164286023Y-118335460D01*
X164201143Y-118295635D01*
X164124982Y-118240177D01*
X164060591Y-118170999D01*
X164015728Y-118095507D01*
X163988690Y-118012270D01*
X163979413Y-117919120D01*
X163979842Y-117915457D01*
X164194958Y-117915457D01*
X164204910Y-117988822D01*
X164233900Y-118051537D01*
X164283129Y-118106332D01*
X164345691Y-118146840D01*
X164420690Y-118172023D01*
X164511374Y-118180949D01*
X164598116Y-118172058D01*
X164669841Y-118146931D01*
X164729727Y-118106332D01*
X164776145Y-118051714D01*
X164804028Y-117987275D01*
X164813747Y-117909961D01*
X164813747Y-117893353D01*
X164799455Y-117825519D01*
X164768244Y-117766259D01*
X164718614Y-117713590D01*
X164657382Y-117673968D01*
X164588105Y-117649966D01*
X164508565Y-117641660D01*
X164421821Y-117650724D01*
X164348085Y-117676657D01*
X164284595Y-117719085D01*
X164234550Y-117775693D01*
X164205071Y-117840235D01*
X164194958Y-117915457D01*
X163979842Y-117915457D01*
X163992783Y-117804888D01*
X164031683Y-117705137D01*
X164096822Y-117616380D01*
X164192149Y-117536758D01*
X164179682Y-117449609D01*
X164150230Y-117395348D01*
X164105678Y-117363841D01*
X164040963Y-117352477D01*
X163977428Y-117366295D01*
X163926168Y-117408042D01*
X163974595Y-117458106D01*
X163987718Y-117499755D01*
X163979513Y-117538236D01*
X163954134Y-117572051D01*
X163917679Y-117594973D01*
X163875732Y-117602581D01*
X163821434Y-117591010D01*
X163773639Y-117555198D01*
X163741143Y-117503222D01*
X163730163Y-117440893D01*
X163739755Y-117376373D01*
X163768030Y-117320524D01*
X163816992Y-117270900D01*
X163877980Y-117234413D01*
X163948999Y-117211884D01*
X164032536Y-117203977D01*
X164150881Y-117216752D01*
G37*
G36*
X163224214Y-117585973D02*
G01*
X163224214Y-117665230D01*
X163132646Y-117572409D01*
X163029276Y-117507387D01*
X162911702Y-117467816D01*
X162776151Y-117454082D01*
X162677372Y-117462606D01*
X162582649Y-117488060D01*
X162490631Y-117531018D01*
X162407721Y-117588931D01*
X162348245Y-117652551D01*
X162308548Y-117722505D01*
X162280215Y-117825728D01*
X162269347Y-117971388D01*
X162269347Y-118502739D01*
X162266538Y-118645254D01*
X162249586Y-118702734D01*
X162224542Y-118731244D01*
X162190945Y-118740387D01*
X162125244Y-118730373D01*
X162067847Y-118720237D01*
X162033960Y-118726622D01*
X162004832Y-118745882D01*
X161984865Y-118774245D01*
X161978210Y-118808286D01*
X161986541Y-118847319D01*
X162011793Y-118879483D01*
X162048472Y-118900586D01*
X162093004Y-118907815D01*
X162221842Y-118898290D01*
X162389759Y-118888764D01*
X162510170Y-118893527D01*
X162658548Y-118907815D01*
X162723359Y-118895556D01*
X162758039Y-118863671D01*
X162770533Y-118808286D01*
X162759733Y-118758948D01*
X162730099Y-118730903D01*
X162675401Y-118720237D01*
X162624965Y-118727930D01*
X162557798Y-118743196D01*
X162524635Y-118730854D01*
X162499283Y-118687799D01*
X162485013Y-118589933D01*
X162479396Y-118447784D01*
X162476587Y-118277669D01*
X162476587Y-118065910D01*
X162480966Y-117929593D01*
X162490631Y-117862456D01*
X162514407Y-117796137D01*
X162550577Y-117741955D01*
X162599808Y-117697958D01*
X162663886Y-117662458D01*
X162733350Y-117641124D01*
X162809734Y-117633845D01*
X162919017Y-117644874D01*
X163006223Y-117675570D01*
X163076158Y-117724409D01*
X163131769Y-117792725D01*
X163165245Y-117869205D01*
X163189395Y-117987728D01*
X163198935Y-118163485D01*
X163198935Y-118534124D01*
X163193685Y-118647104D01*
X163182205Y-118701430D01*
X163158087Y-118735057D01*
X163120533Y-118746004D01*
X163058984Y-118733182D01*
X162994626Y-118720237D01*
X162946088Y-118730973D01*
X162918377Y-118760547D01*
X162907798Y-118815369D01*
X162919897Y-118866155D01*
X162954208Y-118896084D01*
X163019783Y-118907815D01*
X163165352Y-118893283D01*
X163302616Y-118885956D01*
X163459420Y-118895725D01*
X163599371Y-118907815D01*
X163668290Y-118895532D01*
X163704296Y-118864237D01*
X163716974Y-118811217D01*
X163706394Y-118759440D01*
X163678098Y-118730843D01*
X163627337Y-118720237D01*
X163575680Y-118731716D01*
X163501430Y-118743196D01*
X163468119Y-118735186D01*
X163442558Y-118710765D01*
X163423558Y-118663449D01*
X163414602Y-118580774D01*
X163408984Y-118269975D01*
X163408984Y-117931210D01*
X163414602Y-117833269D01*
X163424772Y-117745824D01*
X163438415Y-117703087D01*
X163462713Y-117677113D01*
X163501430Y-117668039D01*
X163558827Y-117674389D01*
X163616224Y-117680739D01*
X163674639Y-117669783D01*
X163705789Y-117641374D01*
X163716974Y-117592201D01*
X163704131Y-117543255D01*
X163666248Y-117513168D01*
X163590945Y-117500976D01*
X163562979Y-117503541D01*
X163459420Y-117514043D01*
X163381018Y-117507449D01*
X163305425Y-117500976D01*
X163259673Y-117510757D01*
X163233924Y-117537356D01*
X163224214Y-117585973D01*
G37*
G36*
X161348510Y-117467947D02*
G01*
X161474639Y-117507934D01*
X161586263Y-117573496D01*
X161685851Y-117666573D01*
X161764687Y-117777296D01*
X161822116Y-117904301D01*
X161858010Y-118050596D01*
X161870621Y-118220027D01*
X161858571Y-118385929D01*
X161824539Y-118526879D01*
X161770563Y-118647065D01*
X161697086Y-118749790D01*
X161603808Y-118835240D01*
X161496781Y-118896149D01*
X161373278Y-118933737D01*
X161229361Y-118946894D01*
X161114006Y-118937918D01*
X161006567Y-118911504D01*
X160905482Y-118867723D01*
X160809508Y-118805722D01*
X160724301Y-118727767D01*
X160667827Y-118648928D01*
X160635366Y-118567923D01*
X160624616Y-118482588D01*
X160636895Y-118422017D01*
X160669636Y-118388673D01*
X160728175Y-118376343D01*
X160771755Y-118384131D01*
X160801420Y-118405698D01*
X160820621Y-118442899D01*
X160845778Y-118523377D01*
X160873670Y-118586793D01*
X160917291Y-118642912D01*
X160978890Y-118692759D01*
X161049388Y-118729771D01*
X161124029Y-118751849D01*
X161204204Y-118759316D01*
X161295040Y-118750394D01*
X161376323Y-118724391D01*
X161450118Y-118681277D01*
X161517812Y-118619487D01*
X161572377Y-118546103D01*
X161611461Y-118464504D01*
X161635502Y-118373113D01*
X161643841Y-118269853D01*
X161632728Y-118237613D01*
X161617964Y-118230911D01*
X161584979Y-118227843D01*
X160694591Y-118227843D01*
X160635725Y-118220367D01*
X160613381Y-118204274D01*
X160604141Y-118170446D01*
X160599337Y-118074703D01*
X160605547Y-118001796D01*
X160826238Y-118001796D01*
X160838961Y-118029271D01*
X160884979Y-118040265D01*
X161554204Y-118040265D01*
X161602637Y-118029115D01*
X161615753Y-118001796D01*
X161602307Y-117915651D01*
X161561061Y-117833683D01*
X161487037Y-117753035D01*
X161396315Y-117690239D01*
X161301910Y-117653806D01*
X161201395Y-117641660D01*
X161104857Y-117653601D01*
X161018046Y-117688853D01*
X160938224Y-117748883D01*
X160875176Y-117825986D01*
X160838566Y-117909353D01*
X160826238Y-118001796D01*
X160605547Y-118001796D01*
X160610623Y-117942211D01*
X160643129Y-117825651D01*
X160696038Y-117722109D01*
X160770184Y-117629448D01*
X160860941Y-117552992D01*
X160962001Y-117498757D01*
X161075448Y-117465578D01*
X161204204Y-117454082D01*
X161348510Y-117467947D01*
G37*
G36*
X159594206Y-117000450D02*
G01*
X159635193Y-117019067D01*
X159657683Y-117046220D01*
X159665474Y-117084176D01*
X159654113Y-117133115D01*
X159622222Y-117161636D01*
X159561915Y-117172714D01*
X159498900Y-117164898D01*
X159435886Y-117157083D01*
X159399919Y-117165977D01*
X159374190Y-117192721D01*
X159357484Y-117244644D01*
X159351866Y-117382885D01*
X159351866Y-117668039D01*
X159429086Y-117574532D01*
X159521583Y-117508843D01*
X159632287Y-117468374D01*
X159766224Y-117454082D01*
X159905290Y-117467436D01*
X160025405Y-117505762D01*
X160130369Y-117568306D01*
X160222714Y-117656803D01*
X160294877Y-117761953D01*
X160348019Y-117884812D01*
X160381564Y-118028679D01*
X160393440Y-118197679D01*
X160381495Y-118364857D01*
X160347597Y-118508553D01*
X160293606Y-118632592D01*
X160219905Y-118740020D01*
X160125962Y-118830617D01*
X160019942Y-118894411D01*
X159899395Y-118933362D01*
X159760607Y-118946894D01*
X159622576Y-118933494D01*
X159507550Y-118895591D01*
X159410839Y-118834533D01*
X159329396Y-118748813D01*
X159332205Y-118795464D01*
X159332205Y-118809141D01*
X159322323Y-118867594D01*
X159297590Y-118897501D01*
X159256612Y-118907815D01*
X159197871Y-118903175D01*
X159133391Y-118900000D01*
X159048028Y-118903907D01*
X158962665Y-118907815D01*
X158902313Y-118900457D01*
X158865306Y-118881789D01*
X158844181Y-118853541D01*
X158836636Y-118812683D01*
X158848212Y-118761200D01*
X158880303Y-118731603D01*
X158940195Y-118720237D01*
X159001866Y-118728053D01*
X159057798Y-118735868D01*
X159101848Y-118724223D01*
X159125087Y-118690928D01*
X159134778Y-118628782D01*
X159141817Y-118460362D01*
X159144893Y-118203297D01*
X159357362Y-118203297D01*
X159368597Y-118439602D01*
X159389692Y-118531309D01*
X159428765Y-118607721D01*
X159486200Y-118671755D01*
X159557688Y-118719753D01*
X159640670Y-118749073D01*
X159738258Y-118759316D01*
X159834410Y-118749413D01*
X159917000Y-118720975D01*
X159988892Y-118674339D01*
X160051866Y-118607763D01*
X160099614Y-118530050D01*
X160135454Y-118436928D01*
X160158435Y-118325475D01*
X160166660Y-118192184D01*
X160152823Y-118024804D01*
X160114852Y-117892876D01*
X160056018Y-117789061D01*
X159995257Y-117724485D01*
X159925292Y-117679118D01*
X159844303Y-117651358D01*
X159749371Y-117641660D01*
X159655585Y-117651958D01*
X159570483Y-117682284D01*
X159491817Y-117733374D01*
X159437005Y-117790873D01*
X159396879Y-117862183D01*
X159371406Y-117950261D01*
X159361786Y-118031808D01*
X159357362Y-118203297D01*
X159144893Y-118203297D01*
X159147435Y-117990928D01*
X159147435Y-117715422D01*
X159141817Y-117501831D01*
X159133391Y-117285310D01*
X159127773Y-117136322D01*
X159127773Y-117105425D01*
X159138404Y-117037843D01*
X159164399Y-117004219D01*
X159206175Y-116992951D01*
X159278960Y-117000767D01*
X159351866Y-117008583D01*
X159444190Y-117000767D01*
X159525401Y-116992951D01*
X159594206Y-117000450D01*
G37*
G36*
X158145561Y-117012406D02*
G01*
X158179806Y-117041994D01*
X158191835Y-117091992D01*
X158181001Y-117141640D01*
X158151311Y-117169823D01*
X158096580Y-117180530D01*
X158043457Y-117175034D01*
X157970673Y-117164043D01*
X157932085Y-117173390D01*
X157907658Y-117200436D01*
X157894637Y-117245419D01*
X157886653Y-117340509D01*
X157881036Y-118088625D01*
X157886653Y-118371580D01*
X157895080Y-118587247D01*
X157897889Y-118724511D01*
X157900697Y-118783374D01*
X157892871Y-118851338D01*
X157873236Y-118892397D01*
X157844081Y-118915367D01*
X157802634Y-118923447D01*
X157747351Y-118911727D01*
X157716348Y-118879956D01*
X157704692Y-118822086D01*
X157715928Y-118731960D01*
X157658530Y-118808782D01*
X157590021Y-118867707D01*
X157509033Y-118910505D01*
X157413078Y-118937371D01*
X157298761Y-118946894D01*
X157154227Y-118932958D01*
X157029878Y-118893024D01*
X156921659Y-118827929D01*
X156826884Y-118735868D01*
X156753105Y-118626492D01*
X156698605Y-118498172D01*
X156664116Y-118347374D01*
X156654003Y-118200488D01*
X156878663Y-118200488D01*
X156886704Y-118329265D01*
X156909280Y-118438065D01*
X156944687Y-118530027D01*
X156992114Y-118607763D01*
X157054419Y-118674619D01*
X157124987Y-118721218D01*
X157205481Y-118749501D01*
X157298639Y-118759316D01*
X157415092Y-118745500D01*
X157505384Y-118707138D01*
X157575751Y-118645308D01*
X157629099Y-118556350D01*
X157650831Y-118484556D01*
X157667263Y-118364793D01*
X157673918Y-118178262D01*
X157668255Y-118025971D01*
X157654256Y-117928035D01*
X157627152Y-117851456D01*
X157582963Y-117783849D01*
X157519923Y-117723726D01*
X157445640Y-117677866D01*
X157366909Y-117650789D01*
X157281908Y-117641660D01*
X157191559Y-117651303D01*
X157113855Y-117679054D01*
X157046048Y-117724762D01*
X156986496Y-117790404D01*
X156929378Y-117894994D01*
X156892255Y-118029115D01*
X156878663Y-118200488D01*
X156654003Y-118200488D01*
X156651884Y-118169713D01*
X156663342Y-118007868D01*
X156695748Y-117869736D01*
X156747170Y-117751429D01*
X156817114Y-117649842D01*
X156906381Y-117564593D01*
X157008437Y-117504176D01*
X157125833Y-117467049D01*
X157262369Y-117454082D01*
X157394905Y-117466826D01*
X157494766Y-117501343D01*
X157582248Y-117562166D01*
X157676727Y-117665230D01*
X157668499Y-117359129D01*
X157651448Y-117117515D01*
X157651448Y-117078558D01*
X157659391Y-117032704D01*
X157679438Y-117009016D01*
X157712997Y-117000767D01*
X157797138Y-117008583D01*
X157883845Y-117016399D01*
X157956629Y-117011147D01*
X158023796Y-117003332D01*
X158079849Y-117000767D01*
X158145561Y-117012406D01*
G37*
G36*
X155997069Y-117768911D02*
G01*
X155675157Y-118715230D01*
X155333583Y-117782833D01*
X155319539Y-117721284D01*
X155326163Y-117695626D01*
X155345571Y-117679967D01*
X155383897Y-117673656D01*
X155437142Y-117681106D01*
X155495882Y-117688555D01*
X155548503Y-117677811D01*
X155577556Y-117649086D01*
X155588328Y-117597575D01*
X155575481Y-117544776D01*
X155538741Y-117513376D01*
X155467916Y-117500976D01*
X155411863Y-117506350D01*
X155311113Y-117519783D01*
X155227093Y-117525157D01*
X155087142Y-117513066D01*
X154947069Y-117500976D01*
X154876090Y-117513272D01*
X154839425Y-117544296D01*
X154826657Y-117596231D01*
X154837495Y-117648632D01*
X154866610Y-117677719D01*
X154919103Y-117688555D01*
X154961113Y-117681472D01*
X155011427Y-117670847D01*
X155040435Y-117681315D01*
X155075755Y-117721499D01*
X155120603Y-117813852D01*
X155501500Y-118766887D01*
X155592747Y-118977443D01*
X155671635Y-119126284D01*
X155739515Y-119226674D01*
X155822300Y-119317087D01*
X155910160Y-119384736D01*
X156003918Y-119432194D01*
X156105017Y-119460795D01*
X156215422Y-119470551D01*
X156326454Y-119460300D01*
X156421090Y-119431091D01*
X156502529Y-119383845D01*
X156568959Y-119319532D01*
X156606292Y-119250526D01*
X156618667Y-119174040D01*
X156605547Y-119093857D01*
X156568230Y-119032623D01*
X156510971Y-118992099D01*
X156436706Y-118978157D01*
X156377015Y-118987826D01*
X156330338Y-119015526D01*
X156298782Y-119057582D01*
X156288328Y-119108339D01*
X156297813Y-119161561D01*
X156324133Y-119198081D01*
X156369539Y-119222034D01*
X156336464Y-119253808D01*
X156285636Y-119274871D01*
X156209926Y-119282972D01*
X156115224Y-119270929D01*
X156026947Y-119234810D01*
X155942602Y-119172330D01*
X155874572Y-119092833D01*
X155836161Y-119011165D01*
X155823534Y-118924668D01*
X155837668Y-118841661D01*
X155899127Y-118664427D01*
X156207117Y-117886392D01*
X156240701Y-117796755D01*
X156279725Y-117717965D01*
X156315533Y-117681288D01*
X156349877Y-117670847D01*
X156410083Y-117679762D01*
X156467480Y-117688555D01*
X156523760Y-117677550D01*
X156554285Y-117648587D01*
X156565422Y-117597575D01*
X156557734Y-117556146D01*
X156536180Y-117527459D01*
X156498355Y-117508469D01*
X156436584Y-117500976D01*
X156372226Y-117504030D01*
X156260240Y-117519539D01*
X156237892Y-117519539D01*
X156204187Y-117522348D01*
X155988642Y-117510136D01*
X155873848Y-117500976D01*
X155804612Y-117513044D01*
X155768760Y-117543556D01*
X155756245Y-117594766D01*
X155768072Y-117646885D01*
X155800975Y-117676965D01*
X155862613Y-117688555D01*
X155915858Y-117681106D01*
X155969103Y-117673656D01*
X155998504Y-117683456D01*
X156008304Y-117712857D01*
X155997069Y-117768911D01*
G37*
G36*
X170632833Y-120770118D02*
G01*
X170644278Y-120669910D01*
X170672944Y-120609501D01*
X170715395Y-120575804D01*
X170775593Y-120563977D01*
X170834333Y-120567030D01*
X170909926Y-120571549D01*
X170943544Y-120565014D01*
X170971598Y-120545415D01*
X170990374Y-120516340D01*
X170996755Y-120480690D01*
X170984083Y-120427749D01*
X170948084Y-120396488D01*
X170879152Y-120384214D01*
X170837142Y-120387023D01*
X170445132Y-120415478D01*
X170417166Y-120415478D01*
X169742323Y-120392030D01*
X169596755Y-120386168D01*
X169515544Y-120384214D01*
X169447772Y-120393499D01*
X169404879Y-120417641D01*
X169379364Y-120455649D01*
X169369975Y-120512564D01*
X169381210Y-120654836D01*
X169389637Y-120819333D01*
X169384019Y-120956109D01*
X169372784Y-121076032D01*
X169384856Y-121136716D01*
X169416824Y-121169863D01*
X169473534Y-121182034D01*
X169515891Y-121173596D01*
X169545896Y-121149458D01*
X169566255Y-121105961D01*
X169574406Y-121033534D01*
X169574406Y-120887843D01*
X169583095Y-120764863D01*
X169604837Y-120685611D01*
X169635063Y-120637184D01*
X169672470Y-120610383D01*
X169773228Y-120590054D01*
X170047627Y-120579609D01*
X170227246Y-120582662D01*
X170282833Y-120588157D01*
X170335714Y-120610758D01*
X170372082Y-120645168D01*
X170394857Y-120693118D01*
X170403244Y-120759371D01*
X170403244Y-120885279D01*
X170403244Y-120946950D01*
X170406053Y-121002882D01*
X170406053Y-121039274D01*
X170398505Y-121111663D01*
X170380637Y-121150264D01*
X170355617Y-121167990D01*
X170288450Y-121173607D01*
X170173656Y-121173607D01*
X170087745Y-121163860D01*
X170036044Y-121139478D01*
X170007270Y-121103450D01*
X169997191Y-121052463D01*
X170005617Y-120965024D01*
X170014043Y-120869159D01*
X170001654Y-120803996D01*
X169969370Y-120769054D01*
X169913171Y-120756441D01*
X169868985Y-120764025D01*
X169839120Y-120784847D01*
X169819884Y-120820356D01*
X169812421Y-120877096D01*
X169831960Y-121051242D01*
X169844904Y-121176767D01*
X169848813Y-121278510D01*
X169837578Y-121477812D01*
X169823656Y-121576120D01*
X169815230Y-121674305D01*
X169827067Y-121731743D01*
X169858819Y-121763578D01*
X169915980Y-121775422D01*
X169970016Y-121762712D01*
X170001685Y-121726851D01*
X170014043Y-121658674D01*
X170007083Y-121569647D01*
X170000000Y-121480743D01*
X170009519Y-121429478D01*
X170036214Y-121393972D01*
X170083073Y-121370463D01*
X170159612Y-121361186D01*
X170285642Y-121361186D01*
X170357044Y-121369988D01*
X170385048Y-121389030D01*
X170397399Y-121425057D01*
X170403244Y-121508464D01*
X170403244Y-121680778D01*
X170400436Y-121800212D01*
X170397627Y-121922456D01*
X170389656Y-121995672D01*
X170373734Y-122038518D01*
X170352808Y-122061430D01*
X170311378Y-122074444D01*
X170207240Y-122080847D01*
X169826465Y-122080847D01*
X169716048Y-122073856D01*
X169644161Y-122056368D01*
X169599685Y-122032243D01*
X169567889Y-121994870D01*
X169546368Y-121937011D01*
X169538014Y-121850404D01*
X169542288Y-121726939D01*
X169546441Y-121603353D01*
X169538859Y-121544243D01*
X169519422Y-121507502D01*
X169489504Y-121486150D01*
X169445568Y-121478422D01*
X169398981Y-121486457D01*
X169367448Y-121508544D01*
X169347102Y-121546276D01*
X169339200Y-121606650D01*
X169344818Y-121760034D01*
X169350436Y-121913297D01*
X169346284Y-122028946D01*
X169342009Y-122144595D01*
X169350886Y-122204356D01*
X169374398Y-122243054D01*
X169412472Y-122266741D01*
X169470847Y-122275631D01*
X169568789Y-122268914D01*
X169692009Y-122265617D01*
X169910362Y-122258900D01*
X170322034Y-122252184D01*
X170583757Y-122256133D01*
X170837142Y-122267815D01*
X170862299Y-122275631D01*
X170879152Y-122275631D01*
X170934111Y-122268215D01*
X170968748Y-122248996D01*
X170989242Y-122218897D01*
X170996755Y-122174026D01*
X170986397Y-122122383D01*
X170958890Y-122094080D01*
X170909926Y-122083656D01*
X170834333Y-122088541D01*
X170775593Y-122095868D01*
X170715571Y-122083962D01*
X170673110Y-122049939D01*
X170644341Y-121988728D01*
X170632833Y-121886919D01*
X170632833Y-120770118D01*
G37*
G36*
X168634438Y-120940355D02*
G01*
X168634438Y-121016803D01*
X168553885Y-120926654D01*
X168463725Y-120864436D01*
X168361982Y-120826998D01*
X168245237Y-120814082D01*
X168118815Y-120827255D01*
X168014469Y-120864489D01*
X167927477Y-120924724D01*
X167859916Y-121005246D01*
X167819573Y-121098647D01*
X167805600Y-121209023D01*
X167813043Y-121289068D01*
X167833938Y-121354866D01*
X167867271Y-121409302D01*
X167912843Y-121452170D01*
X167966086Y-121477491D01*
X168029570Y-121486238D01*
X168089575Y-121476215D01*
X168138747Y-121446915D01*
X168172529Y-121402989D01*
X168183565Y-121351294D01*
X168175335Y-121309223D01*
X168149982Y-121271304D01*
X168113174Y-121244741D01*
X168071580Y-121236133D01*
X168035188Y-121243583D01*
X168018457Y-121183255D01*
X168026178Y-121133583D01*
X168049270Y-121089365D01*
X168089898Y-121048799D01*
X168140002Y-121018863D01*
X168198536Y-121000351D01*
X168267585Y-120993845D01*
X168370841Y-121006911D01*
X168450538Y-121043301D01*
X168512415Y-121102527D01*
X168558722Y-121188995D01*
X168581353Y-121270864D01*
X168597369Y-121388383D01*
X168603541Y-121551573D01*
X168603541Y-121735610D01*
X168600732Y-121944682D01*
X168580489Y-122045442D01*
X168550815Y-122090611D01*
X168513904Y-122103684D01*
X168438311Y-122090251D01*
X168385188Y-122080237D01*
X168334301Y-122090752D01*
X168306066Y-122118987D01*
X168295551Y-122169874D01*
X168308134Y-122223990D01*
X168343474Y-122255550D01*
X168410345Y-122267815D01*
X168421580Y-122267815D01*
X168548953Y-122259755D01*
X168676325Y-122251573D01*
X168852791Y-122260000D01*
X169009595Y-122267815D01*
X169076295Y-122255432D01*
X169111718Y-122223434D01*
X169124389Y-122168286D01*
X169112883Y-122119892D01*
X169080280Y-122091398D01*
X169018021Y-122080237D01*
X168976011Y-122084145D01*
X168934002Y-122095868D01*
X168894801Y-122103684D01*
X168858747Y-122092194D01*
X168833039Y-122054867D01*
X168819207Y-121974846D01*
X168813590Y-121831964D01*
X168822016Y-121196078D01*
X168839198Y-121091196D01*
X168868208Y-121044432D01*
X168906036Y-121030847D01*
X168967585Y-121039762D01*
X169029134Y-121048555D01*
X169081884Y-121037903D01*
X169110875Y-121009543D01*
X169121580Y-120958918D01*
X169108655Y-120905254D01*
X169071841Y-120873479D01*
X169001168Y-120860976D01*
X168917271Y-120867571D01*
X168833251Y-120874043D01*
X168760467Y-120867449D01*
X168707222Y-120860976D01*
X168666503Y-120869952D01*
X168643289Y-120894646D01*
X168634438Y-120940355D01*
G37*
G36*
X166318532Y-120341088D02*
G01*
X166452031Y-120374318D01*
X166570071Y-120427955D01*
X166675055Y-120502197D01*
X166768545Y-120598660D01*
X166843373Y-120707722D01*
X166903454Y-120833531D01*
X166948358Y-120978551D01*
X166976840Y-121145767D01*
X166986898Y-121338593D01*
X166976927Y-121522458D01*
X166948560Y-121683320D01*
X166903581Y-121824229D01*
X166843013Y-121947836D01*
X166767079Y-122056301D01*
X166673048Y-122152144D01*
X166568610Y-122225663D01*
X166452344Y-122278563D01*
X166322056Y-122311195D01*
X166174912Y-122322526D01*
X166088451Y-122316713D01*
X166001256Y-122299078D01*
X166001256Y-122496182D01*
X165990513Y-122600205D01*
X165961202Y-122679167D01*
X165915278Y-122739011D01*
X165851299Y-122783176D01*
X165764695Y-122812018D01*
X165648447Y-122822735D01*
X165545730Y-122811673D01*
X165460670Y-122780312D01*
X165389427Y-122729312D01*
X165334817Y-122661430D01*
X165301657Y-122580497D01*
X165290020Y-122482627D01*
X165298263Y-122417846D01*
X165319361Y-122377668D01*
X165351748Y-122354383D01*
X165399197Y-122345973D01*
X165440091Y-122353614D01*
X165469438Y-122375314D01*
X165489958Y-122413648D01*
X165500069Y-122476154D01*
X165511510Y-122562205D01*
X165528035Y-122603649D01*
X165554291Y-122628205D01*
X165594453Y-122644516D01*
X165654064Y-122650788D01*
X165724979Y-122638421D01*
X165773143Y-122604326D01*
X165804340Y-122545842D01*
X165816486Y-122451974D01*
X165816486Y-122239117D01*
X165681567Y-122138813D01*
X165571803Y-122020056D01*
X165485042Y-121881066D01*
X165420746Y-121718772D01*
X165380034Y-121529008D01*
X165365614Y-121306720D01*
X165365836Y-121302568D01*
X165612055Y-121302568D01*
X165622078Y-121497262D01*
X165650665Y-121668882D01*
X165696074Y-121820362D01*
X165741659Y-121911559D01*
X165813677Y-122013558D01*
X165813677Y-121896933D01*
X165998447Y-121896933D01*
X165998447Y-122114553D01*
X166098491Y-122136486D01*
X166171981Y-122142763D01*
X166242021Y-122134785D01*
X166299937Y-122112109D01*
X166348447Y-122074986D01*
X166385186Y-122026126D01*
X166407686Y-121967687D01*
X166415614Y-121896933D01*
X166408128Y-121833806D01*
X166386693Y-121780940D01*
X166351256Y-121735976D01*
X166304988Y-121701850D01*
X166250678Y-121681083D01*
X166186025Y-121673817D01*
X166117618Y-121683005D01*
X166067703Y-121708166D01*
X166031464Y-121748991D01*
X166007551Y-121809452D01*
X165998447Y-121896933D01*
X165813677Y-121896933D01*
X165813677Y-121865425D01*
X165825250Y-121755502D01*
X165857469Y-121668153D01*
X165908932Y-121598346D01*
X165978019Y-121546234D01*
X166064948Y-121513605D01*
X166174912Y-121501870D01*
X166281682Y-121512784D01*
X166373532Y-121544136D01*
X166453593Y-121595537D01*
X166517540Y-121664219D01*
X166554456Y-121740104D01*
X166566922Y-121826224D01*
X166559180Y-121898914D01*
X166534819Y-121976668D01*
X166491207Y-122061186D01*
X166576981Y-121975506D01*
X166646939Y-121865257D01*
X166700696Y-121725536D01*
X166735993Y-121549869D01*
X166748883Y-121330533D01*
X166737666Y-121138757D01*
X166706532Y-120980321D01*
X166658392Y-120849807D01*
X166594888Y-120742641D01*
X166510024Y-120650507D01*
X166412294Y-120585936D01*
X166299160Y-120546487D01*
X166166486Y-120532714D01*
X166039257Y-120545970D01*
X165931166Y-120583887D01*
X165838153Y-120645891D01*
X165757745Y-120734337D01*
X165697854Y-120837011D01*
X165652288Y-120962758D01*
X165622728Y-121116147D01*
X165612055Y-121302568D01*
X165365836Y-121302568D01*
X165375447Y-121122771D01*
X165403382Y-120962311D01*
X165447589Y-120822222D01*
X165506985Y-120699793D01*
X165581280Y-120592798D01*
X165673530Y-120498125D01*
X165776358Y-120425443D01*
X165891203Y-120373086D01*
X166020288Y-120340747D01*
X166166486Y-120329504D01*
X166318532Y-120341088D01*
G37*
G36*
X164697609Y-121447037D02*
G01*
X164697609Y-121811570D01*
X164694801Y-121977044D01*
X164676609Y-122056284D01*
X164651006Y-122092513D01*
X164619207Y-122103196D01*
X164549232Y-122086831D01*
X164507222Y-122080237D01*
X164445442Y-122091728D01*
X164412607Y-122121438D01*
X164400854Y-122172683D01*
X164409296Y-122208392D01*
X164435903Y-122239849D01*
X164474433Y-122260510D01*
X164524075Y-122267815D01*
X164659874Y-122256946D01*
X164795673Y-122245956D01*
X164958094Y-122255725D01*
X165103663Y-122267815D01*
X165168943Y-122255881D01*
X165203397Y-122225208D01*
X165215648Y-122172683D01*
X165204614Y-122120463D01*
X165174738Y-122091218D01*
X165120394Y-122080237D01*
X165054692Y-122090373D01*
X164988869Y-122100387D01*
X164956112Y-122086995D01*
X164927930Y-122037509D01*
X164907658Y-121921235D01*
X164907658Y-121677602D01*
X164907658Y-121448014D01*
X164907658Y-121204382D01*
X164928137Y-121090672D01*
X164957186Y-121041585D01*
X164991678Y-121028039D01*
X165054692Y-121038297D01*
X165114898Y-121048555D01*
X165173058Y-121037421D01*
X165204331Y-121008341D01*
X165215648Y-120957575D01*
X165208135Y-120915757D01*
X165187253Y-120887092D01*
X165151040Y-120868329D01*
X165092428Y-120860976D01*
X165016835Y-120864152D01*
X164902041Y-120876852D01*
X164833531Y-120868914D01*
X164764898Y-120860976D01*
X164721126Y-120872254D01*
X164694436Y-120905265D01*
X164683688Y-120970397D01*
X164686496Y-121003981D01*
X164689305Y-121037686D01*
X164694801Y-121211465D01*
X164697609Y-121447037D01*
G37*
G36*
X164843300Y-120712477D02*
G01*
X164903010Y-120700930D01*
X164953942Y-120666071D01*
X164988595Y-120614886D01*
X165000104Y-120554696D01*
X164988554Y-120494863D01*
X164953942Y-120444909D01*
X164903113Y-120411101D01*
X164843300Y-120399846D01*
X164783508Y-120411105D01*
X164732780Y-120444909D01*
X164698073Y-120494873D01*
X164686496Y-120554696D01*
X164698032Y-120614877D01*
X164732780Y-120666071D01*
X164783612Y-120700926D01*
X164843300Y-120712477D01*
G37*
G36*
X162783356Y-121702149D02*
G01*
X162783356Y-121648782D01*
X162786165Y-121573066D01*
X163329361Y-120711988D01*
X163396528Y-120613803D01*
X163443203Y-120582397D01*
X163500209Y-120571793D01*
X163550645Y-120579609D01*
X163575802Y-120579609D01*
X163603768Y-120579609D01*
X163665566Y-120572127D01*
X163703390Y-120553172D01*
X163724928Y-120524557D01*
X163732606Y-120483255D01*
X163720138Y-120428189D01*
X163685483Y-120396438D01*
X163620621Y-120384214D01*
X163508635Y-120394351D01*
X163376005Y-120409838D01*
X163256577Y-120414745D01*
X162996214Y-120391908D01*
X162895341Y-120384214D01*
X162828163Y-120396268D01*
X162792971Y-120427050D01*
X162780547Y-120479347D01*
X162788313Y-120518094D01*
X162810569Y-120545596D01*
X162850767Y-120564297D01*
X162917812Y-120571793D01*
X162945778Y-120571793D01*
X163015753Y-120571793D01*
X163071807Y-120571793D01*
X163097816Y-120576615D01*
X163105390Y-120594141D01*
X163102581Y-120609528D01*
X163088538Y-120633098D01*
X162660136Y-121358377D01*
X162226238Y-120630411D01*
X162212194Y-120585593D01*
X162220226Y-120567508D01*
X162248586Y-120560436D01*
X162254204Y-120560436D01*
X162304640Y-120571793D01*
X162377424Y-120576434D01*
X162450209Y-120579609D01*
X162517106Y-120567362D01*
X162552434Y-120535870D01*
X162565003Y-120481912D01*
X162552609Y-120427720D01*
X162518022Y-120396339D01*
X162453018Y-120384214D01*
X162352267Y-120391786D01*
X162200373Y-120407400D01*
X162080669Y-120412058D01*
X161957473Y-120407254D01*
X161814689Y-120391786D01*
X161719434Y-120384214D01*
X161658225Y-120396105D01*
X161625116Y-120427323D01*
X161613066Y-120482156D01*
X161624489Y-120531808D01*
X161656437Y-120560633D01*
X161716625Y-120571793D01*
X161781106Y-120564710D01*
X161842655Y-120557627D01*
X161887675Y-120564951D01*
X161926260Y-120586650D01*
X161960258Y-120624794D01*
X162002267Y-120689274D01*
X162553768Y-121554382D01*
X162553768Y-121671985D01*
X162545701Y-121931423D01*
X162529954Y-122027602D01*
X162507195Y-122065441D01*
X162469543Y-122088767D01*
X162411008Y-122097578D01*
X162342498Y-122092815D01*
X162273866Y-122088053D01*
X162224711Y-122098337D01*
X162197294Y-122126083D01*
X162187037Y-122176346D01*
X162194741Y-122219370D01*
X162216128Y-122248831D01*
X162253171Y-122268090D01*
X162313066Y-122275631D01*
X162329797Y-122275631D01*
X162349459Y-122272700D01*
X162503454Y-122252184D01*
X162674180Y-122240460D01*
X162845027Y-122252184D01*
X162987787Y-122272700D01*
X163004640Y-122275631D01*
X163024180Y-122275631D01*
X163084369Y-122268208D01*
X163121388Y-122249330D01*
X163142607Y-122220654D01*
X163150209Y-122179033D01*
X163139628Y-122127256D01*
X163111332Y-122098659D01*
X163060572Y-122088053D01*
X162994870Y-122092815D01*
X162928925Y-122097578D01*
X162876901Y-122088677D01*
X162837200Y-122063213D01*
X162806762Y-122018966D01*
X162786165Y-121948956D01*
X162783356Y-121702149D01*
G37*
G36*
X161206459Y-120827201D02*
G01*
X161330783Y-120864780D01*
X161439288Y-120925823D01*
X161510422Y-120987810D01*
X161557877Y-121052270D01*
X161585412Y-121120268D01*
X161594626Y-121193757D01*
X161582280Y-121260999D01*
X161545655Y-121316612D01*
X161490924Y-121354138D01*
X161423778Y-121366803D01*
X161366683Y-121357419D01*
X161321685Y-121330411D01*
X161291256Y-121289265D01*
X161281018Y-121237965D01*
X161291726Y-121178464D01*
X161320219Y-121142833D01*
X161340714Y-121125499D01*
X161345376Y-121114867D01*
X161336252Y-121086705D01*
X161303367Y-121056004D01*
X161228124Y-121016891D01*
X161150166Y-120993776D01*
X161068161Y-120986029D01*
X160975094Y-120994256D01*
X160902386Y-121016807D01*
X160845655Y-121051852D01*
X160801673Y-121100511D01*
X160775124Y-121159590D01*
X160765788Y-121232348D01*
X160774962Y-121308868D01*
X160799309Y-121361730D01*
X160837229Y-121397456D01*
X160888842Y-121420559D01*
X160984264Y-121444531D01*
X161143754Y-121467309D01*
X161363572Y-121499549D01*
X161419688Y-121517941D01*
X161493754Y-121554138D01*
X161581767Y-121617338D01*
X161642533Y-121693430D01*
X161679545Y-121784645D01*
X161692568Y-121895467D01*
X161683653Y-121986624D01*
X161658046Y-122065403D01*
X161616175Y-122134321D01*
X161556769Y-122195031D01*
X161460444Y-122255213D01*
X161341554Y-122293238D01*
X161194190Y-122306894D01*
X161072167Y-122297500D01*
X160969299Y-122271012D01*
X160882226Y-122228986D01*
X160808370Y-122171587D01*
X160746127Y-122097578D01*
X160717264Y-122171124D01*
X160676147Y-122225798D01*
X160622264Y-122265074D01*
X160552873Y-122290013D01*
X160463415Y-122299078D01*
X160356500Y-122286831D01*
X160280348Y-122254051D01*
X160226827Y-122202962D01*
X160192156Y-122130607D01*
X160177773Y-122029556D01*
X160174965Y-121869455D01*
X160174965Y-121855533D01*
X160182406Y-121789883D01*
X160201018Y-121750383D01*
X160228512Y-121728408D01*
X160267411Y-121720711D01*
X160316599Y-121730971D01*
X160343999Y-121758618D01*
X160354239Y-121808639D01*
X160354239Y-121943339D01*
X160362801Y-122032016D01*
X160383615Y-122083310D01*
X160412839Y-122110289D01*
X160452180Y-122119316D01*
X160496574Y-122109051D01*
X160527588Y-122078894D01*
X160547313Y-122021863D01*
X160552930Y-121863227D01*
X160552930Y-121540460D01*
X160771406Y-121540460D01*
X160774214Y-121738053D01*
X160788730Y-121852107D01*
X160825900Y-121943664D01*
X160884856Y-122017711D01*
X160962370Y-122072541D01*
X161059010Y-122106955D01*
X161180146Y-122119316D01*
X161265955Y-122111755D01*
X161334317Y-122090860D01*
X161388852Y-122058133D01*
X161431420Y-122012581D01*
X161456888Y-121957870D01*
X161465788Y-121891071D01*
X161454541Y-121820905D01*
X161421958Y-121764241D01*
X161365496Y-121717579D01*
X161277527Y-121680842D01*
X161146563Y-121657330D01*
X160983919Y-121637053D01*
X160901587Y-121618374D01*
X160835858Y-121588457D01*
X160771406Y-121540460D01*
X160552930Y-121540460D01*
X160552930Y-121301102D01*
X160564649Y-121164595D01*
X160596833Y-121057166D01*
X160646851Y-120972704D01*
X160714710Y-120906904D01*
X160803042Y-120857750D01*
X160916757Y-120825791D01*
X161062543Y-120814082D01*
X161206459Y-120827201D01*
G37*
G36*
X159781367Y-120945973D02*
G01*
X159781367Y-121025230D01*
X159689799Y-120932409D01*
X159586428Y-120867387D01*
X159468855Y-120827816D01*
X159333304Y-120814082D01*
X159234525Y-120822606D01*
X159139802Y-120848060D01*
X159047784Y-120891018D01*
X158964874Y-120948931D01*
X158905397Y-121012551D01*
X158865701Y-121082505D01*
X158837368Y-121185728D01*
X158826500Y-121331388D01*
X158826500Y-121862739D01*
X158823691Y-122005254D01*
X158806739Y-122062734D01*
X158781694Y-122091244D01*
X158748098Y-122100387D01*
X158682397Y-122090373D01*
X158625000Y-122080237D01*
X158591113Y-122086622D01*
X158561985Y-122105882D01*
X158542018Y-122134245D01*
X158535362Y-122168286D01*
X158543694Y-122207319D01*
X158568946Y-122239483D01*
X158605624Y-122260586D01*
X158650157Y-122267815D01*
X158778995Y-122258290D01*
X158946912Y-122248764D01*
X159067323Y-122253527D01*
X159215701Y-122267815D01*
X159280512Y-122255556D01*
X159315192Y-122223671D01*
X159327686Y-122168286D01*
X159316886Y-122118948D01*
X159287252Y-122090903D01*
X159232554Y-122080237D01*
X159182117Y-122087930D01*
X159114951Y-122103196D01*
X159081787Y-122090854D01*
X159056435Y-122047799D01*
X159042166Y-121949933D01*
X159036549Y-121807784D01*
X159033740Y-121637669D01*
X159033740Y-121425910D01*
X159038119Y-121289593D01*
X159047784Y-121222456D01*
X159071559Y-121156137D01*
X159107730Y-121101955D01*
X159156960Y-121057958D01*
X159221039Y-121022458D01*
X159290503Y-121001124D01*
X159366887Y-120993845D01*
X159476170Y-121004874D01*
X159563376Y-121035570D01*
X159633311Y-121084409D01*
X159688921Y-121152725D01*
X159722398Y-121229205D01*
X159746547Y-121347728D01*
X159756088Y-121523485D01*
X159756088Y-121894124D01*
X159750838Y-122007104D01*
X159739357Y-122061430D01*
X159715240Y-122095057D01*
X159677686Y-122106004D01*
X159616137Y-122093182D01*
X159551779Y-122080237D01*
X159503241Y-122090973D01*
X159475530Y-122120547D01*
X159464951Y-122175369D01*
X159477050Y-122226155D01*
X159511361Y-122256084D01*
X159576936Y-122267815D01*
X159722505Y-122253283D01*
X159859769Y-122245956D01*
X160016573Y-122255725D01*
X160156524Y-122267815D01*
X160225443Y-122255532D01*
X160261449Y-122224237D01*
X160274127Y-122171217D01*
X160263546Y-122119440D01*
X160235251Y-122090843D01*
X160184490Y-122080237D01*
X160132833Y-122091716D01*
X160058583Y-122103196D01*
X160025272Y-122095186D01*
X159999711Y-122070765D01*
X159980711Y-122023449D01*
X159971755Y-121940774D01*
X159966137Y-121629975D01*
X159966137Y-121291210D01*
X159971755Y-121193269D01*
X159981925Y-121105824D01*
X159995568Y-121063087D01*
X160019866Y-121037113D01*
X160058583Y-121028039D01*
X160115980Y-121034389D01*
X160173377Y-121040739D01*
X160231791Y-121029783D01*
X160262941Y-121001374D01*
X160274127Y-120952201D01*
X160261284Y-120903255D01*
X160223401Y-120873168D01*
X160148098Y-120860976D01*
X160120132Y-120863541D01*
X160016573Y-120874043D01*
X159938171Y-120867449D01*
X159862578Y-120860976D01*
X159816826Y-120870757D01*
X159791077Y-120897356D01*
X159781367Y-120945973D01*
G37*
G36*
X157398055Y-120576752D02*
G01*
X157482501Y-120610827D01*
X157541915Y-120663390D01*
X157580923Y-120736696D01*
X157598935Y-120837529D01*
X157689401Y-120819534D01*
X157764166Y-120814082D01*
X157873492Y-120822469D01*
X157969943Y-120846583D01*
X158055676Y-120885604D01*
X158132362Y-120939745D01*
X158197544Y-121007685D01*
X158242820Y-121081830D01*
X158270056Y-121163598D01*
X158279396Y-121255184D01*
X158271031Y-121340267D01*
X158246713Y-121415926D01*
X158206489Y-121484162D01*
X158311659Y-121531827D01*
X158379925Y-121591441D01*
X158419649Y-121663480D01*
X158433391Y-121752219D01*
X158420377Y-121832676D01*
X158381652Y-121902494D01*
X158313343Y-121964899D01*
X158206489Y-122020275D01*
X158304187Y-122067075D01*
X158374438Y-122121946D01*
X158422502Y-122184730D01*
X158451359Y-122256894D01*
X158461357Y-122341332D01*
X158449941Y-122433692D01*
X158416692Y-122513913D01*
X158360709Y-122585020D01*
X158278053Y-122648468D01*
X158185749Y-122694195D01*
X158073329Y-122729220D01*
X157937041Y-122751993D01*
X157772592Y-122760209D01*
X157608857Y-122751589D01*
X157471685Y-122727558D01*
X157357096Y-122690315D01*
X157261636Y-122641263D01*
X157176491Y-122574022D01*
X157118712Y-122499010D01*
X157084374Y-122414697D01*
X157073783Y-122327777D01*
X157285327Y-122327777D01*
X157298693Y-122394561D01*
X157339618Y-122452985D01*
X157415509Y-122505830D01*
X157504966Y-122540745D01*
X157620961Y-122564018D01*
X157769783Y-122572630D01*
X157910885Y-122564255D01*
X158021923Y-122541512D01*
X158108548Y-122507173D01*
X158181459Y-122455340D01*
X158221368Y-122396523D01*
X158234577Y-122327777D01*
X158221195Y-122259146D01*
X158180546Y-122199867D01*
X158105861Y-122147037D01*
X158017261Y-122112167D01*
X157901775Y-122088874D01*
X157752930Y-122080237D01*
X157605934Y-122088778D01*
X157493456Y-122111667D01*
X157408548Y-122145694D01*
X157337687Y-122197416D01*
X157298442Y-122257073D01*
X157285327Y-122327777D01*
X157073783Y-122327777D01*
X157072592Y-122318007D01*
X157082417Y-122237394D01*
X157111774Y-122162516D01*
X157162229Y-122091350D01*
X157227060Y-122031597D01*
X157307352Y-121982061D01*
X157405739Y-121942972D01*
X157517162Y-121916737D01*
X157658941Y-121899144D01*
X157836950Y-121892658D01*
X157870533Y-121892658D01*
X157920969Y-121892658D01*
X157937822Y-121892658D01*
X158065076Y-121883989D01*
X158146575Y-121862364D01*
X158195866Y-121832505D01*
X158222748Y-121795950D01*
X158231769Y-121750509D01*
X158224053Y-121707006D01*
X158200994Y-121669787D01*
X158167377Y-121643786D01*
X158131018Y-121635593D01*
X158098954Y-121639929D01*
X158055425Y-121655254D01*
X157943480Y-121696875D01*
X157837486Y-121720787D01*
X157736200Y-121728527D01*
X157628441Y-121720004D01*
X157533197Y-121695460D01*
X157448317Y-121655635D01*
X157372156Y-121600177D01*
X157307764Y-121530999D01*
X157262902Y-121455507D01*
X157235864Y-121372270D01*
X157226587Y-121279120D01*
X157227016Y-121275457D01*
X157442131Y-121275457D01*
X157452084Y-121348822D01*
X157481074Y-121411537D01*
X157530303Y-121466332D01*
X157592865Y-121506840D01*
X157667864Y-121532023D01*
X157758548Y-121540949D01*
X157845290Y-121532058D01*
X157917015Y-121506931D01*
X157976901Y-121466332D01*
X158023319Y-121411714D01*
X158051201Y-121347275D01*
X158060921Y-121269961D01*
X158060921Y-121253353D01*
X158046629Y-121185519D01*
X158015418Y-121126259D01*
X157965788Y-121073590D01*
X157904556Y-121033968D01*
X157835279Y-121009966D01*
X157755739Y-121001660D01*
X157668995Y-121010724D01*
X157595259Y-121036657D01*
X157531769Y-121079085D01*
X157481723Y-121135693D01*
X157452244Y-121200235D01*
X157442131Y-121275457D01*
X157227016Y-121275457D01*
X157239957Y-121164888D01*
X157278856Y-121065137D01*
X157343996Y-120976380D01*
X157439323Y-120896758D01*
X157426855Y-120809609D01*
X157397404Y-120755348D01*
X157352852Y-120723841D01*
X157288136Y-120712477D01*
X157224602Y-120726295D01*
X157173342Y-120768042D01*
X157221769Y-120818106D01*
X157234891Y-120859755D01*
X157226687Y-120898236D01*
X157201308Y-120932051D01*
X157164853Y-120954973D01*
X157122906Y-120962581D01*
X157068607Y-120951010D01*
X157020812Y-120915198D01*
X156988317Y-120863222D01*
X156977337Y-120800893D01*
X156986928Y-120736373D01*
X157015204Y-120680524D01*
X157064166Y-120630900D01*
X157125153Y-120594413D01*
X157196173Y-120571884D01*
X157279710Y-120563977D01*
X157398055Y-120576752D01*
G37*
M02*
