M48
; DRILL file KiCad 10.0.0 date 2026-06-01T11:45:24
; FORMAT={-:-/ absolute / metric / decimal}
; #@! TF.CreationDate,2026-06-01T11:45:24+08:00
; #@! TF.GenerationSoftware,Kicad,Pcbnew,10.0.0
; #@! TF.FileFunction,Plated,1,4,PTH
FMAT,2
METRIC
; #@! TA.AperFunction,Plated,PTH,ViaDrill
T1C0.300
; #@! TA.AperFunction,Plated,PTH,ViaDrill
T2C0.400
; #@! TA.AperFunction,Plated,PTH,ComponentDrill
T3C0.600
; #@! TA.AperFunction,Plated,PTH,ComponentDrill
T4C1.000
; #@! TA.AperFunction,Plated,PTH,ComponentDrill
T5C2.200
%
G90
G05
T1
X130.15Y-109.5
X130.35Y-115.775
X130.95Y-118.95
X131.125Y-125.975
X131.55Y-109.9
X132.25Y-122.85
X132.675Y-115.9
X133.75Y-107.85
X133.95Y-109.35
X134.075Y-116.1
X134.2Y-111.1
X134.45Y-113.05
X134.6Y-118.95
X134.8Y-104.05
X135.2Y-114.3
X135.8Y-129.1
X136.0Y-127.4
X136.5Y-124.1
X136.55Y-121.05
X136.6Y-118.15
X136.6Y-122.25
X137.0Y-106.25
X139.15Y-123.0
X139.5Y-106.975
X139.5Y-109.25
X139.5Y-128.25
X139.8Y-124.1
X140.05Y-105.825
X140.25Y-114.9
X141.5Y-113.9
X141.55Y-117.35
X141.7Y-114.8
X141.75Y-120.25
X142.25Y-129.9
X143.45Y-128.15
X144.9Y-111.125
X145.0Y-119.35
X145.9Y-119.5
X146.35Y-128.3
X146.425Y-110.9
X146.825Y-104.1
X147.0Y-122.15
X147.025Y-112.525
X147.225Y-103.1
X147.525Y-110.775
X148.05Y-122.15
X148.307Y-111.043
X148.65Y-127.15
X148.9Y-119.3
X149.15Y-129.8
X149.35Y-112.4
X150.0Y-124.3
X150.2Y-119.0
X150.85Y-111.05
X151.1Y-124.3
X151.7Y-119.0
X151.85Y-111.05
X152.3Y-124.3
X155.15Y-128.6
X158.0Y-126.25
X158.5Y-108.1
X159.1Y-128.8
X159.15Y-131.2
X159.8Y-108.4
X160.15Y-103.05
X160.3Y-104.2
X162.3Y-108.3
X163.75Y-126.25
X164.189Y-108.011
X164.3Y-112.5
X164.35Y-115.3
X164.45Y-113.8
X164.5Y-111.4
X164.5Y-116.1
X164.65Y-131.15
X164.7Y-109.3
X165.35Y-116.3
X165.5Y-111.25
X166.55Y-104.95
X166.85Y-111.3
X167.0Y-116.35
X168.1Y-111.25
X168.3Y-116.35
X169.0Y-103.9
X169.1Y-130.95
X169.35Y-115.95
X169.5Y-111.35
X169.55Y-114.95
X169.6Y-112.4
X169.6Y-113.7
X169.85Y-103.9
X170.0Y-109.0
X172.05Y-108.3
X172.5Y-122.15
X172.6Y-125.55
X173.0Y-108.3
T2
X139.375Y-130.8
X142.1Y-125.8
X145.5Y-125.6
X148.6Y-128.3
T4
X130.795Y-121.045
X130.795Y-123.585
X134.5Y-120.98
X134.5Y-123.52
X137.02Y-104.1
X139.56Y-104.1
X142.1Y-104.1
X144.2Y-123.6
X144.64Y-104.1
X146.74Y-123.6
X151.6Y-126.93
X151.6Y-130.51
X155.2Y-126.91
X155.2Y-130.5
X161.25Y-127.5
X161.25Y-130.04
X163.98Y-103.5
X166.52Y-103.5
X167.0Y-127.5
X167.0Y-130.04
T5
X132.0Y-105.0
X132.0Y-129.0
X171.0Y-129.0
T3
G00X132.0Y-108.36
M15
G01X131.2Y-108.36
M16
G05
G00X132.0Y-117.0
M15
G01X131.2Y-117.0
M16
G05
G00X136.33Y-108.36
M15
G01X135.23Y-108.36
M16
G05
G00X136.33Y-117.0
M15
G01X135.23Y-117.0
M16
G05
M30
