%TF.GenerationSoftware,KiCad,Pcbnew,10.0.0*%
%TF.CreationDate,2026-06-01T11:45:50+08:00*%
%TF.ProjectId,pcb_Crimp-ER,7063625f-4372-4696-9d70-2d45522e6b69,rev?*%
%TF.SameCoordinates,Original*%
%TF.FileFunction,Paste,Top*%
%TF.FilePolarity,Positive*%
%FSLAX46Y46*%
G04 Gerber Fmt 4.6, Leading zero omitted, Abs format (unit mm)*
G04 Created by KiCad (PCBNEW 10.0.0) date 2026-06-01 11:45:50*
%MOMM*%
%LPD*%
G01*
G04 APERTURE LIST*
G04 Aperture macros list*
%AMRoundRect*
0 Rectangle with rounded corners*
0 $1 Rounding radius*
0 $2 $3 $4 $5 $6 $7 $8 $9 X,Y pos of 4 corners*
0 Add a 4 corners polygon primitive as box body*
4,1,4,$2,$3,$4,$5,$6,$7,$8,$9,$2,$3,0*
0 Add four circle primitives for the rounded corners*
1,1,$1+$1,$2,$3*
1,1,$1+$1,$4,$5*
1,1,$1+$1,$6,$7*
1,1,$1+$1,$8,$9*
0 Add four rect primitives between the rounded corners*
20,1,$1+$1,$2,$3,$4,$5,0*
20,1,$1+$1,$4,$5,$6,$7,0*
20,1,$1+$1,$6,$7,$8,$9,0*
20,1,$1+$1,$8,$9,$2,$3,0*%
G04 Aperture macros list end*
%ADD10RoundRect,0.135000X-0.135000X-0.185000X0.135000X-0.185000X0.135000X0.185000X-0.135000X0.185000X0*%
%ADD11RoundRect,0.135000X0.185000X-0.135000X0.185000X0.135000X-0.185000X0.135000X-0.185000X-0.135000X0*%
%ADD12RoundRect,0.135000X0.135000X0.185000X-0.135000X0.185000X-0.135000X-0.185000X0.135000X-0.185000X0*%
%ADD13RoundRect,0.150000X-0.512500X-0.150000X0.512500X-0.150000X0.512500X0.150000X-0.512500X0.150000X0*%
%ADD14RoundRect,0.225000X0.225000X0.250000X-0.225000X0.250000X-0.225000X-0.250000X0.225000X-0.250000X0*%
%ADD15RoundRect,0.150000X-0.425000X0.150000X-0.425000X-0.150000X0.425000X-0.150000X0.425000X0.150000X0*%
%ADD16RoundRect,0.075000X-0.500000X0.075000X-0.500000X-0.075000X0.500000X-0.075000X0.500000X0.075000X0*%
%ADD17O,2.100000X1.000000*%
%ADD18O,1.800000X1.000000*%
%ADD19RoundRect,0.140000X0.170000X-0.140000X0.170000X0.140000X-0.170000X0.140000X-0.170000X-0.140000X0*%
%ADD20RoundRect,0.140000X-0.140000X-0.170000X0.140000X-0.170000X0.140000X0.170000X-0.140000X0.170000X0*%
%ADD21R,0.900000X1.500000*%
%ADD22R,0.800000X0.800000*%
%ADD23RoundRect,0.150000X0.150000X0.200000X-0.150000X0.200000X-0.150000X-0.200000X0.150000X-0.200000X0*%
%ADD24RoundRect,0.140000X-0.170000X0.140000X-0.170000X-0.140000X0.170000X-0.140000X0.170000X0.140000X0*%
%ADD25RoundRect,0.150000X0.512500X0.150000X-0.512500X0.150000X-0.512500X-0.150000X0.512500X-0.150000X0*%
%ADD26RoundRect,0.225000X-0.225000X-0.250000X0.225000X-0.250000X0.225000X0.250000X-0.225000X0.250000X0*%
%ADD27RoundRect,0.150000X0.150000X-0.825000X0.150000X0.825000X-0.150000X0.825000X-0.150000X-0.825000X0*%
%ADD28RoundRect,0.150000X-0.200000X0.150000X-0.200000X-0.150000X0.200000X-0.150000X0.200000X0.150000X0*%
%ADD29RoundRect,0.225000X0.375000X-0.225000X0.375000X0.225000X-0.375000X0.225000X-0.375000X-0.225000X0*%
%ADD30RoundRect,0.140000X0.140000X0.170000X-0.140000X0.170000X-0.140000X-0.170000X0.140000X-0.170000X0*%
%ADD31RoundRect,0.150000X-0.587500X-0.150000X0.587500X-0.150000X0.587500X0.150000X-0.587500X0.150000X0*%
G04 APERTURE END LIST*
D10*
%TO.C,R2*%
X138190000Y-114900000D03*
X139210000Y-114900000D03*
%TD*%
D11*
%TO.C,R3*%
X147350000Y-117000000D03*
X147350000Y-115980000D03*
%TD*%
D12*
%TO.C,R13*%
X169770000Y-103000000D03*
X168750000Y-103000000D03*
%TD*%
D13*
%TO.C,U4*%
X144862500Y-127300000D03*
X144862500Y-128250000D03*
X144862500Y-129200000D03*
X147137500Y-129200000D03*
X147137500Y-127300000D03*
%TD*%
D14*
%TO.C,C5*%
X144775000Y-130750000D03*
X143225000Y-130750000D03*
%TD*%
D15*
%TO.C,J1*%
X136355000Y-109480000D03*
X136355000Y-110280000D03*
D16*
X136355000Y-111430000D03*
X136355000Y-112430000D03*
X136355000Y-112930000D03*
X136355000Y-113930000D03*
D15*
X136355000Y-115080000D03*
X136355000Y-115880000D03*
X136355000Y-115880000D03*
X136355000Y-115080000D03*
D16*
X136355000Y-114430000D03*
X136355000Y-113430000D03*
X136355000Y-111930000D03*
X136355000Y-110930000D03*
D15*
X136355000Y-110280000D03*
X136355000Y-109480000D03*
D17*
X135780000Y-108360000D03*
D18*
X131600000Y-108360000D03*
D17*
X135780000Y-117000000D03*
D18*
X131600000Y-117000000D03*
%TD*%
D19*
%TO.C,C4*%
X149000000Y-116960000D03*
X149000000Y-116000000D03*
%TD*%
D10*
%TO.C,R16*%
X136880000Y-125320000D03*
X137900000Y-125320000D03*
%TD*%
D20*
%TO.C,C10*%
X163790000Y-130000000D03*
X164750000Y-130000000D03*
%TD*%
D11*
%TO.C,R4*%
X147350000Y-119260000D03*
X147350000Y-118240000D03*
%TD*%
D14*
%TO.C,C6*%
X148175000Y-130800000D03*
X146625000Y-130800000D03*
%TD*%
D11*
%TO.C,R6*%
X151750000Y-118020000D03*
X151750000Y-117000000D03*
%TD*%
%TO.C,R8*%
X143250000Y-127020000D03*
X143250000Y-126000000D03*
%TD*%
D14*
%TO.C,C2*%
X145050000Y-121000000D03*
X143500000Y-121000000D03*
%TD*%
D21*
%TO.C,U1*%
X172570000Y-106500000D03*
X171300000Y-106500000D03*
X170030000Y-106500000D03*
X168760000Y-106500000D03*
X167490000Y-106500000D03*
X166220000Y-106500000D03*
X164950000Y-106500000D03*
X163680000Y-106500000D03*
X162410000Y-106500000D03*
X161140000Y-106500000D03*
X159870000Y-106500000D03*
X158600000Y-106500000D03*
X157330000Y-106500000D03*
X156060000Y-106500000D03*
X156060000Y-124000000D03*
X157330000Y-124000000D03*
X158600000Y-124000000D03*
X159870000Y-124000000D03*
X161140000Y-124000000D03*
X162410000Y-124000000D03*
X163680000Y-124000000D03*
X164950000Y-124000000D03*
X166220000Y-124000000D03*
X167490000Y-124000000D03*
X168760000Y-124000000D03*
X170030000Y-124000000D03*
X171300000Y-124000000D03*
X172570000Y-124000000D03*
D22*
X168100000Y-112495000D03*
X166850000Y-112495000D03*
X165600000Y-112495000D03*
X168100000Y-113745000D03*
X166850000Y-113745000D03*
X165600000Y-113745000D03*
X168100000Y-114995000D03*
X166850000Y-114995000D03*
X165600000Y-114995000D03*
%TD*%
D23*
%TO.C,D2*%
X138250000Y-113500000D03*
X139650000Y-113500000D03*
%TD*%
D24*
%TO.C,C7*%
X137200000Y-127400000D03*
X137200000Y-128360000D03*
%TD*%
D19*
%TO.C,C13*%
X161400000Y-104080000D03*
X161400000Y-103120000D03*
%TD*%
D11*
%TO.C,R5*%
X150250000Y-118020000D03*
X150250000Y-117000000D03*
%TD*%
D20*
%TO.C,C8*%
X141000000Y-130800000D03*
X141960000Y-130800000D03*
%TD*%
D25*
%TO.C,U3*%
X141025000Y-129150000D03*
X141025000Y-128200000D03*
X141025000Y-127250000D03*
X138750000Y-127250000D03*
X138750000Y-129150000D03*
%TD*%
D26*
%TO.C,C9*%
X170950000Y-104500000D03*
X172500000Y-104500000D03*
%TD*%
D10*
%TO.C,R10*%
X157990000Y-127500000D03*
X159010000Y-127500000D03*
%TD*%
D12*
%TO.C,R12*%
X142010000Y-124500000D03*
X140990000Y-124500000D03*
%TD*%
D10*
%TO.C,R9*%
X163750000Y-127500000D03*
X164770000Y-127500000D03*
%TD*%
D27*
%TO.C,U2*%
X142750000Y-114000000D03*
X144020000Y-114000000D03*
X145290000Y-114000000D03*
X146560000Y-114000000D03*
X147830000Y-114000000D03*
X149100000Y-114000000D03*
X150370000Y-114000000D03*
X151640000Y-114000000D03*
X151640000Y-109050000D03*
X150370000Y-109050000D03*
X149100000Y-109050000D03*
X147830000Y-109050000D03*
X146560000Y-109050000D03*
X145290000Y-109050000D03*
X144020000Y-109050000D03*
X142750000Y-109050000D03*
%TD*%
D28*
%TO.C,D1*%
X138400000Y-110650000D03*
X138400000Y-109250000D03*
%TD*%
D20*
%TO.C,C12*%
X170750000Y-103000000D03*
X171710000Y-103000000D03*
%TD*%
D10*
%TO.C,R1*%
X138280000Y-108000000D03*
X139300000Y-108000000D03*
%TD*%
D29*
%TO.C,D4*%
X138950000Y-121400000D03*
X138950000Y-118100000D03*
%TD*%
D10*
%TO.C,R15*%
X138890000Y-125320000D03*
X139910000Y-125320000D03*
%TD*%
D19*
%TO.C,C14*%
X137800000Y-123760000D03*
X137800000Y-122800000D03*
%TD*%
D14*
%TO.C,C3*%
X148300000Y-120750000D03*
X146750000Y-120750000D03*
%TD*%
D30*
%TO.C,C1*%
X151500000Y-116000000D03*
X150540000Y-116000000D03*
%TD*%
D31*
%TO.C,Q1*%
X143662500Y-117300000D03*
X143662500Y-119200000D03*
X145537500Y-118250000D03*
%TD*%
D10*
%TO.C,R7*%
X147400000Y-125900000D03*
X148420000Y-125900000D03*
%TD*%
D20*
%TO.C,C11*%
X158040000Y-130000000D03*
X159000000Y-130000000D03*
%TD*%
D23*
%TO.C,D3*%
X139300000Y-116250000D03*
X140700000Y-116250000D03*
%TD*%
M02*
