%TF.GenerationSoftware,KiCad,Pcbnew,10.0.0*%
%TF.CreationDate,2026-06-01T11:45:50+08:00*%
%TF.ProjectId,pcb_Crimp-ER,7063625f-4372-4696-9d70-2d45522e6b69,rev?*%
%TF.SameCoordinates,Original*%
%TF.FileFunction,Legend,Top*%
%TF.FilePolarity,Positive*%
%FSLAX46Y46*%
G04 Gerber Fmt 4.6, Leading zero omitted, Abs format (unit mm)*
G04 Created by KiCad (PCBNEW 10.0.0) date 2026-06-01 11:45:50*
%MOMM*%
%LPD*%
G01*
G04 APERTURE LIST*
%ADD10C,0.150000*%
%ADD11C,0.120000*%
G04 APERTURE END LIST*
D10*
X129970112Y-118746009D02*
X130112969Y-118793628D01*
X130112969Y-118793628D02*
X130160588Y-118841247D01*
X130160588Y-118841247D02*
X130208207Y-118936485D01*
X130208207Y-118936485D02*
X130208207Y-119079342D01*
X130208207Y-119079342D02*
X130160588Y-119174580D01*
X130160588Y-119174580D02*
X130112969Y-119222200D01*
X130112969Y-119222200D02*
X130017731Y-119269819D01*
X130017731Y-119269819D02*
X129636779Y-119269819D01*
X129636779Y-119269819D02*
X129636779Y-118269819D01*
X129636779Y-118269819D02*
X129970112Y-118269819D01*
X129970112Y-118269819D02*
X130065350Y-118317438D01*
X130065350Y-118317438D02*
X130112969Y-118365057D01*
X130112969Y-118365057D02*
X130160588Y-118460295D01*
X130160588Y-118460295D02*
X130160588Y-118555533D01*
X130160588Y-118555533D02*
X130112969Y-118650771D01*
X130112969Y-118650771D02*
X130065350Y-118698390D01*
X130065350Y-118698390D02*
X129970112Y-118746009D01*
X129970112Y-118746009D02*
X129636779Y-118746009D01*
X130589160Y-118984104D02*
X131065350Y-118984104D01*
X130493922Y-119269819D02*
X130827255Y-118269819D01*
X130827255Y-118269819D02*
X131160588Y-119269819D01*
X131351065Y-118269819D02*
X131922493Y-118269819D01*
X131636779Y-119269819D02*
X131636779Y-118269819D01*
X132112970Y-118269819D02*
X132684398Y-118269819D01*
X132398684Y-119269819D02*
X132398684Y-118269819D01*
X148836779Y-122159875D02*
X148836779Y-121159875D01*
X148836779Y-121159875D02*
X149217731Y-121159875D01*
X149217731Y-121159875D02*
X149312969Y-121207494D01*
X149312969Y-121207494D02*
X149360588Y-121255113D01*
X149360588Y-121255113D02*
X149408207Y-121350351D01*
X149408207Y-121350351D02*
X149408207Y-121493208D01*
X149408207Y-121493208D02*
X149360588Y-121588446D01*
X149360588Y-121588446D02*
X149312969Y-121636065D01*
X149312969Y-121636065D02*
X149217731Y-121683684D01*
X149217731Y-121683684D02*
X148836779Y-121683684D01*
X149741541Y-121159875D02*
X149979636Y-122159875D01*
X149979636Y-122159875D02*
X150170112Y-121445589D01*
X150170112Y-121445589D02*
X150360588Y-122159875D01*
X150360588Y-122159875D02*
X150598684Y-121159875D01*
X151551064Y-122159875D02*
X151217731Y-121683684D01*
X150979636Y-122159875D02*
X150979636Y-121159875D01*
X150979636Y-121159875D02*
X151360588Y-121159875D01*
X151360588Y-121159875D02*
X151455826Y-121207494D01*
X151455826Y-121207494D02*
X151503445Y-121255113D01*
X151503445Y-121255113D02*
X151551064Y-121350351D01*
X151551064Y-121350351D02*
X151551064Y-121493208D01*
X151551064Y-121493208D02*
X151503445Y-121588446D01*
X151503445Y-121588446D02*
X151455826Y-121636065D01*
X151455826Y-121636065D02*
X151360588Y-121683684D01*
X151360588Y-121683684D02*
X150979636Y-121683684D01*
X149312969Y-123769819D02*
X148836779Y-123769819D01*
X148836779Y-123769819D02*
X148836779Y-122769819D01*
X149646303Y-123246009D02*
X149979636Y-123246009D01*
X150122493Y-123769819D02*
X149646303Y-123769819D01*
X149646303Y-123769819D02*
X149646303Y-122769819D01*
X149646303Y-122769819D02*
X150122493Y-122769819D01*
X150551065Y-123769819D02*
X150551065Y-122769819D01*
X150551065Y-122769819D02*
X150789160Y-122769819D01*
X150789160Y-122769819D02*
X150932017Y-122817438D01*
X150932017Y-122817438D02*
X151027255Y-122912676D01*
X151027255Y-122912676D02*
X151074874Y-123007914D01*
X151074874Y-123007914D02*
X151122493Y-123198390D01*
X151122493Y-123198390D02*
X151122493Y-123341247D01*
X151122493Y-123341247D02*
X151074874Y-123531723D01*
X151074874Y-123531723D02*
X151027255Y-123626961D01*
X151027255Y-123626961D02*
X150932017Y-123722200D01*
X150932017Y-123722200D02*
X150789160Y-123769819D01*
X150789160Y-123769819D02*
X150551065Y-123769819D01*
X162360588Y-104517438D02*
X162265350Y-104469819D01*
X162265350Y-104469819D02*
X162122493Y-104469819D01*
X162122493Y-104469819D02*
X161979636Y-104517438D01*
X161979636Y-104517438D02*
X161884398Y-104612676D01*
X161884398Y-104612676D02*
X161836779Y-104707914D01*
X161836779Y-104707914D02*
X161789160Y-104898390D01*
X161789160Y-104898390D02*
X161789160Y-105041247D01*
X161789160Y-105041247D02*
X161836779Y-105231723D01*
X161836779Y-105231723D02*
X161884398Y-105326961D01*
X161884398Y-105326961D02*
X161979636Y-105422200D01*
X161979636Y-105422200D02*
X162122493Y-105469819D01*
X162122493Y-105469819D02*
X162217731Y-105469819D01*
X162217731Y-105469819D02*
X162360588Y-105422200D01*
X162360588Y-105422200D02*
X162408207Y-105374580D01*
X162408207Y-105374580D02*
X162408207Y-105041247D01*
X162408207Y-105041247D02*
X162217731Y-105041247D01*
X162836779Y-105469819D02*
X162836779Y-104469819D01*
X162836779Y-104469819D02*
X163408207Y-105469819D01*
X163408207Y-105469819D02*
X163408207Y-104469819D01*
X163884398Y-105469819D02*
X163884398Y-104469819D01*
X163884398Y-104469819D02*
X164122493Y-104469819D01*
X164122493Y-104469819D02*
X164265350Y-104517438D01*
X164265350Y-104517438D02*
X164360588Y-104612676D01*
X164360588Y-104612676D02*
X164408207Y-104707914D01*
X164408207Y-104707914D02*
X164455826Y-104898390D01*
X164455826Y-104898390D02*
X164455826Y-105041247D01*
X164455826Y-105041247D02*
X164408207Y-105231723D01*
X164408207Y-105231723D02*
X164360588Y-105326961D01*
X164360588Y-105326961D02*
X164265350Y-105422200D01*
X164265350Y-105422200D02*
X164122493Y-105469819D01*
X164122493Y-105469819D02*
X163884398Y-105469819D01*
X168758207Y-104699819D02*
X168424874Y-104223628D01*
X168186779Y-104699819D02*
X168186779Y-103699819D01*
X168186779Y-103699819D02*
X168567731Y-103699819D01*
X168567731Y-103699819D02*
X168662969Y-103747438D01*
X168662969Y-103747438D02*
X168710588Y-103795057D01*
X168710588Y-103795057D02*
X168758207Y-103890295D01*
X168758207Y-103890295D02*
X168758207Y-104033152D01*
X168758207Y-104033152D02*
X168710588Y-104128390D01*
X168710588Y-104128390D02*
X168662969Y-104176009D01*
X168662969Y-104176009D02*
X168567731Y-104223628D01*
X168567731Y-104223628D02*
X168186779Y-104223628D01*
X169139160Y-104652200D02*
X169282017Y-104699819D01*
X169282017Y-104699819D02*
X169520112Y-104699819D01*
X169520112Y-104699819D02*
X169615350Y-104652200D01*
X169615350Y-104652200D02*
X169662969Y-104604580D01*
X169662969Y-104604580D02*
X169710588Y-104509342D01*
X169710588Y-104509342D02*
X169710588Y-104414104D01*
X169710588Y-104414104D02*
X169662969Y-104318866D01*
X169662969Y-104318866D02*
X169615350Y-104271247D01*
X169615350Y-104271247D02*
X169520112Y-104223628D01*
X169520112Y-104223628D02*
X169329636Y-104176009D01*
X169329636Y-104176009D02*
X169234398Y-104128390D01*
X169234398Y-104128390D02*
X169186779Y-104080771D01*
X169186779Y-104080771D02*
X169139160Y-103985533D01*
X169139160Y-103985533D02*
X169139160Y-103890295D01*
X169139160Y-103890295D02*
X169186779Y-103795057D01*
X169186779Y-103795057D02*
X169234398Y-103747438D01*
X169234398Y-103747438D02*
X169329636Y-103699819D01*
X169329636Y-103699819D02*
X169567731Y-103699819D01*
X169567731Y-103699819D02*
X169710588Y-103747438D01*
X169996303Y-103699819D02*
X170567731Y-103699819D01*
X170282017Y-104699819D02*
X170282017Y-103699819D01*
X134404010Y-106132179D02*
X134297722Y-106138559D01*
X134297722Y-106138559D02*
X134174004Y-106209987D01*
X134174004Y-106209987D02*
X134074096Y-106322655D01*
X134074096Y-106322655D02*
X134039236Y-106452753D01*
X134039236Y-106452753D02*
X134045616Y-106559041D01*
X134045616Y-106559041D02*
X134099615Y-106747808D01*
X134099615Y-106747808D02*
X134171043Y-106871526D01*
X134171043Y-106871526D02*
X134307521Y-107012673D01*
X134307521Y-107012673D02*
X134396379Y-107071342D01*
X134396379Y-107071342D02*
X134526477Y-107106202D01*
X134526477Y-107106202D02*
X134674004Y-107076013D01*
X134674004Y-107076013D02*
X134756483Y-107028394D01*
X134756483Y-107028394D02*
X134856391Y-106915726D01*
X134856391Y-106915726D02*
X134873821Y-106850677D01*
X134873821Y-106850677D02*
X134707154Y-106562002D01*
X134707154Y-106562002D02*
X134542197Y-106657240D01*
X135292594Y-106718870D02*
X134792594Y-105852844D01*
X134792594Y-105852844D02*
X135787465Y-106433156D01*
X135787465Y-106433156D02*
X135287465Y-105567130D01*
X136199858Y-106195060D02*
X135699858Y-105329035D01*
X135699858Y-105329035D02*
X135906055Y-105209987D01*
X135906055Y-105209987D02*
X136053582Y-105179798D01*
X136053582Y-105179798D02*
X136183680Y-105214658D01*
X136183680Y-105214658D02*
X136272538Y-105273327D01*
X136272538Y-105273327D02*
X136409016Y-105414474D01*
X136409016Y-105414474D02*
X136480444Y-105538192D01*
X136480444Y-105538192D02*
X136534443Y-105726959D01*
X136534443Y-105726959D02*
X136540823Y-105833247D01*
X136540823Y-105833247D02*
X136505963Y-105963345D01*
X136505963Y-105963345D02*
X136406055Y-106076013D01*
X136406055Y-106076013D02*
X136199858Y-106195060D01*
X137044090Y-106800464D02*
X137580201Y-106490940D01*
X137580201Y-106490940D02*
X137482002Y-106987521D01*
X137482002Y-106987521D02*
X137605720Y-106916092D01*
X137605720Y-106916092D02*
X137712008Y-106909712D01*
X137712008Y-106909712D02*
X137777057Y-106927142D01*
X137777057Y-106927142D02*
X137865915Y-106985811D01*
X137865915Y-106985811D02*
X137984963Y-107192008D01*
X137984963Y-107192008D02*
X137991342Y-107298296D01*
X137991342Y-107298296D02*
X137973913Y-107363345D01*
X137973913Y-107363345D02*
X137915244Y-107452203D01*
X137915244Y-107452203D02*
X137667808Y-107595060D01*
X137667808Y-107595060D02*
X137561520Y-107601440D01*
X137561520Y-107601440D02*
X137496471Y-107584010D01*
X137827637Y-106348083D02*
X138616312Y-107047441D01*
X138616312Y-107047441D02*
X138404987Y-106014749D01*
X138611184Y-105895702D02*
X139147295Y-105586178D01*
X139147295Y-105586178D02*
X139049096Y-106082759D01*
X139049096Y-106082759D02*
X139172813Y-106011330D01*
X139172813Y-106011330D02*
X139279102Y-106004950D01*
X139279102Y-106004950D02*
X139344150Y-106022380D01*
X139344150Y-106022380D02*
X139433009Y-106081049D01*
X139433009Y-106081049D02*
X139552056Y-106287246D01*
X139552056Y-106287246D02*
X139558436Y-106393534D01*
X139558436Y-106393534D02*
X139541006Y-106458583D01*
X139541006Y-106458583D02*
X139482337Y-106547441D01*
X139482337Y-106547441D02*
X139234901Y-106690298D01*
X139234901Y-106690298D02*
X139128613Y-106696678D01*
X139128613Y-106696678D02*
X139063564Y-106679248D01*
X140261520Y-107501440D02*
X140409047Y-107471251D01*
X140409047Y-107471251D02*
X140615244Y-107352203D01*
X140615244Y-107352203D02*
X140673913Y-107263345D01*
X140673913Y-107263345D02*
X140691342Y-107198296D01*
X140691342Y-107198296D02*
X140684963Y-107092008D01*
X140684963Y-107092008D02*
X140637344Y-107009529D01*
X140637344Y-107009529D02*
X140548485Y-106950860D01*
X140548485Y-106950860D02*
X140483436Y-106933430D01*
X140483436Y-106933430D02*
X140377148Y-106939810D01*
X140377148Y-106939810D02*
X140188382Y-106993809D01*
X140188382Y-106993809D02*
X140082093Y-107000189D01*
X140082093Y-107000189D02*
X140017045Y-106982759D01*
X140017045Y-106982759D02*
X139928186Y-106924090D01*
X139928186Y-106924090D02*
X139880567Y-106841611D01*
X139880567Y-106841611D02*
X139874187Y-106735323D01*
X139874187Y-106735323D02*
X139891617Y-106670274D01*
X139891617Y-106670274D02*
X139950286Y-106581416D01*
X139950286Y-106581416D02*
X140156483Y-106462368D01*
X140156483Y-106462368D02*
X140304010Y-106432179D01*
X141598607Y-106674486D02*
X141581177Y-106739535D01*
X141581177Y-106739535D02*
X141481269Y-106852203D01*
X141481269Y-106852203D02*
X141398790Y-106899822D01*
X141398790Y-106899822D02*
X141251263Y-106930011D01*
X141251263Y-106930011D02*
X141121165Y-106895152D01*
X141121165Y-106895152D02*
X141032307Y-106836483D01*
X141032307Y-106836483D02*
X140895830Y-106695335D01*
X140895830Y-106695335D02*
X140824401Y-106571617D01*
X140824401Y-106571617D02*
X140770402Y-106382850D01*
X140770402Y-106382850D02*
X140764022Y-106276562D01*
X140764022Y-106276562D02*
X140798882Y-106146465D01*
X140798882Y-106146465D02*
X140898790Y-106033797D01*
X140898790Y-106033797D02*
X140981269Y-105986178D01*
X140981269Y-105986178D02*
X141128796Y-105955989D01*
X141128796Y-105955989D02*
X141193845Y-105973418D01*
X142429773Y-106304584D02*
X142017380Y-106542679D01*
X142017380Y-106542679D02*
X141517380Y-105676654D01*
X143361520Y-107601440D02*
X143509047Y-107571251D01*
X143509047Y-107571251D02*
X143715244Y-107452203D01*
X143715244Y-107452203D02*
X143773913Y-107363345D01*
X143773913Y-107363345D02*
X143791342Y-107298296D01*
X143791342Y-107298296D02*
X143784963Y-107192008D01*
X143784963Y-107192008D02*
X143737344Y-107109529D01*
X143737344Y-107109529D02*
X143648485Y-107050860D01*
X143648485Y-107050860D02*
X143583436Y-107033430D01*
X143583436Y-107033430D02*
X143477148Y-107039810D01*
X143477148Y-107039810D02*
X143288382Y-107093809D01*
X143288382Y-107093809D02*
X143182093Y-107100189D01*
X143182093Y-107100189D02*
X143117045Y-107082759D01*
X143117045Y-107082759D02*
X143028186Y-107024090D01*
X143028186Y-107024090D02*
X142980567Y-106941611D01*
X142980567Y-106941611D02*
X142974187Y-106835323D01*
X142974187Y-106835323D02*
X142991617Y-106770274D01*
X142991617Y-106770274D02*
X143050286Y-106681416D01*
X143050286Y-106681416D02*
X143256483Y-106562368D01*
X143256483Y-106562368D02*
X143404010Y-106532179D01*
X144251355Y-107142679D02*
X143751355Y-106276654D01*
X143751355Y-106276654D02*
X143957551Y-106157606D01*
X143957551Y-106157606D02*
X144105079Y-106127417D01*
X144105079Y-106127417D02*
X144235176Y-106162277D01*
X144235176Y-106162277D02*
X144324035Y-106220946D01*
X144324035Y-106220946D02*
X144460512Y-106362093D01*
X144460512Y-106362093D02*
X144531940Y-106485811D01*
X144531940Y-106485811D02*
X144585939Y-106674578D01*
X144585939Y-106674578D02*
X144592319Y-106780866D01*
X144592319Y-106780866D02*
X144557459Y-106910964D01*
X144557459Y-106910964D02*
X144457551Y-107023632D01*
X144457551Y-107023632D02*
X144251355Y-107142679D01*
X144933283Y-106419053D02*
X145345677Y-106180958D01*
X144993662Y-106714108D02*
X144782337Y-105681416D01*
X144782337Y-105681416D02*
X145571012Y-106380775D01*
X136130180Y-117836779D02*
X137130180Y-117836779D01*
X137130180Y-117836779D02*
X137130180Y-118217731D01*
X137130180Y-118217731D02*
X137082561Y-118312969D01*
X137082561Y-118312969D02*
X137034942Y-118360588D01*
X137034942Y-118360588D02*
X136939704Y-118408207D01*
X136939704Y-118408207D02*
X136796847Y-118408207D01*
X136796847Y-118408207D02*
X136701609Y-118360588D01*
X136701609Y-118360588D02*
X136653990Y-118312969D01*
X136653990Y-118312969D02*
X136606371Y-118217731D01*
X136606371Y-118217731D02*
X136606371Y-117836779D01*
X136130180Y-118836779D02*
X137130180Y-118836779D01*
X137130180Y-118836779D02*
X136130180Y-119408207D01*
X136130180Y-119408207D02*
X137130180Y-119408207D01*
X136130180Y-120360588D02*
X136130180Y-119884398D01*
X136130180Y-119884398D02*
X137130180Y-119884398D01*
X136034942Y-120455827D02*
X136034942Y-121217731D01*
X136177800Y-121408208D02*
X136130180Y-121551065D01*
X136130180Y-121551065D02*
X136130180Y-121789160D01*
X136130180Y-121789160D02*
X136177800Y-121884398D01*
X136177800Y-121884398D02*
X136225419Y-121932017D01*
X136225419Y-121932017D02*
X136320657Y-121979636D01*
X136320657Y-121979636D02*
X136415895Y-121979636D01*
X136415895Y-121979636D02*
X136511133Y-121932017D01*
X136511133Y-121932017D02*
X136558752Y-121884398D01*
X136558752Y-121884398D02*
X136606371Y-121789160D01*
X136606371Y-121789160D02*
X136653990Y-121598684D01*
X136653990Y-121598684D02*
X136701609Y-121503446D01*
X136701609Y-121503446D02*
X136749228Y-121455827D01*
X136749228Y-121455827D02*
X136844466Y-121408208D01*
X136844466Y-121408208D02*
X136939704Y-121408208D01*
X136939704Y-121408208D02*
X137034942Y-121455827D01*
X137034942Y-121455827D02*
X137082561Y-121503446D01*
X137082561Y-121503446D02*
X137130180Y-121598684D01*
X137130180Y-121598684D02*
X137130180Y-121836779D01*
X137130180Y-121836779D02*
X137082561Y-121979636D01*
X137130180Y-122312970D02*
X136130180Y-122551065D01*
X136130180Y-122551065D02*
X136844466Y-122741541D01*
X136844466Y-122741541D02*
X136130180Y-122932017D01*
X136130180Y-122932017D02*
X137130180Y-123170113D01*
X137130180Y-123408208D02*
X137130180Y-123979636D01*
X136130180Y-123693922D02*
X137130180Y-123693922D01*
X156516666Y-130254819D02*
X156516666Y-130969104D01*
X156516666Y-130969104D02*
X156469047Y-131111961D01*
X156469047Y-131111961D02*
X156373809Y-131207200D01*
X156373809Y-131207200D02*
X156230952Y-131254819D01*
X156230952Y-131254819D02*
X156135714Y-131254819D01*
X156897619Y-130254819D02*
X157516666Y-130254819D01*
X157516666Y-130254819D02*
X157183333Y-130635771D01*
X157183333Y-130635771D02*
X157326190Y-130635771D01*
X157326190Y-130635771D02*
X157421428Y-130683390D01*
X157421428Y-130683390D02*
X157469047Y-130731009D01*
X157469047Y-130731009D02*
X157516666Y-130826247D01*
X157516666Y-130826247D02*
X157516666Y-131064342D01*
X157516666Y-131064342D02*
X157469047Y-131159580D01*
X157469047Y-131159580D02*
X157421428Y-131207200D01*
X157421428Y-131207200D02*
X157326190Y-131254819D01*
X157326190Y-131254819D02*
X157040476Y-131254819D01*
X157040476Y-131254819D02*
X156945238Y-131207200D01*
X156945238Y-131207200D02*
X156897619Y-131159580D01*
X177229104Y-120011905D02*
X177229104Y-119535715D01*
X177514819Y-120107143D02*
X176514819Y-119773810D01*
X176514819Y-119773810D02*
X177514819Y-119440477D01*
X176848152Y-119107143D02*
X177514819Y-119107143D01*
X176943390Y-119107143D02*
X176895771Y-119059524D01*
X176895771Y-119059524D02*
X176848152Y-118964286D01*
X176848152Y-118964286D02*
X176848152Y-118821429D01*
X176848152Y-118821429D02*
X176895771Y-118726191D01*
X176895771Y-118726191D02*
X176991009Y-118678572D01*
X176991009Y-118678572D02*
X177514819Y-118678572D01*
X176848152Y-118345238D02*
X176848152Y-117964286D01*
X176514819Y-118202381D02*
X177371961Y-118202381D01*
X177371961Y-118202381D02*
X177467200Y-118154762D01*
X177467200Y-118154762D02*
X177514819Y-118059524D01*
X177514819Y-118059524D02*
X177514819Y-117964286D01*
X177467200Y-117250000D02*
X177514819Y-117345238D01*
X177514819Y-117345238D02*
X177514819Y-117535714D01*
X177514819Y-117535714D02*
X177467200Y-117630952D01*
X177467200Y-117630952D02*
X177371961Y-117678571D01*
X177371961Y-117678571D02*
X176991009Y-117678571D01*
X176991009Y-117678571D02*
X176895771Y-117630952D01*
X176895771Y-117630952D02*
X176848152Y-117535714D01*
X176848152Y-117535714D02*
X176848152Y-117345238D01*
X176848152Y-117345238D02*
X176895771Y-117250000D01*
X176895771Y-117250000D02*
X176991009Y-117202381D01*
X176991009Y-117202381D02*
X177086247Y-117202381D01*
X177086247Y-117202381D02*
X177181485Y-117678571D01*
X176848152Y-116773809D02*
X177514819Y-116773809D01*
X176943390Y-116773809D02*
X176895771Y-116726190D01*
X176895771Y-116726190D02*
X176848152Y-116630952D01*
X176848152Y-116630952D02*
X176848152Y-116488095D01*
X176848152Y-116488095D02*
X176895771Y-116392857D01*
X176895771Y-116392857D02*
X176991009Y-116345238D01*
X176991009Y-116345238D02*
X177514819Y-116345238D01*
X176848152Y-115869047D02*
X177514819Y-115869047D01*
X176943390Y-115869047D02*
X176895771Y-115821428D01*
X176895771Y-115821428D02*
X176848152Y-115726190D01*
X176848152Y-115726190D02*
X176848152Y-115583333D01*
X176848152Y-115583333D02*
X176895771Y-115488095D01*
X176895771Y-115488095D02*
X176991009Y-115440476D01*
X176991009Y-115440476D02*
X177514819Y-115440476D01*
X177514819Y-114535714D02*
X176991009Y-114535714D01*
X176991009Y-114535714D02*
X176895771Y-114583333D01*
X176895771Y-114583333D02*
X176848152Y-114678571D01*
X176848152Y-114678571D02*
X176848152Y-114869047D01*
X176848152Y-114869047D02*
X176895771Y-114964285D01*
X177467200Y-114535714D02*
X177514819Y-114630952D01*
X177514819Y-114630952D02*
X177514819Y-114869047D01*
X177514819Y-114869047D02*
X177467200Y-114964285D01*
X177467200Y-114964285D02*
X177371961Y-115011904D01*
X177371961Y-115011904D02*
X177276723Y-115011904D01*
X177276723Y-115011904D02*
X177181485Y-114964285D01*
X177181485Y-114964285D02*
X177133866Y-114869047D01*
X177133866Y-114869047D02*
X177133866Y-114630952D01*
X177133866Y-114630952D02*
X177086247Y-114535714D01*
X177229104Y-113345237D02*
X177229104Y-112869047D01*
X177514819Y-113440475D02*
X176514819Y-113107142D01*
X176514819Y-113107142D02*
X177514819Y-112773809D01*
X177514819Y-112440475D02*
X176848152Y-112440475D01*
X177038628Y-112440475D02*
X176943390Y-112392856D01*
X176943390Y-112392856D02*
X176895771Y-112345237D01*
X176895771Y-112345237D02*
X176848152Y-112249999D01*
X176848152Y-112249999D02*
X176848152Y-112154761D01*
X177467200Y-111440475D02*
X177514819Y-111535713D01*
X177514819Y-111535713D02*
X177514819Y-111726189D01*
X177514819Y-111726189D02*
X177467200Y-111821427D01*
X177467200Y-111821427D02*
X177371961Y-111869046D01*
X177371961Y-111869046D02*
X176991009Y-111869046D01*
X176991009Y-111869046D02*
X176895771Y-111821427D01*
X176895771Y-111821427D02*
X176848152Y-111726189D01*
X176848152Y-111726189D02*
X176848152Y-111535713D01*
X176848152Y-111535713D02*
X176895771Y-111440475D01*
X176895771Y-111440475D02*
X176991009Y-111392856D01*
X176991009Y-111392856D02*
X177086247Y-111392856D01*
X177086247Y-111392856D02*
X177181485Y-111869046D01*
X177514819Y-110535713D02*
X176991009Y-110535713D01*
X176991009Y-110535713D02*
X176895771Y-110583332D01*
X176895771Y-110583332D02*
X176848152Y-110678570D01*
X176848152Y-110678570D02*
X176848152Y-110869046D01*
X176848152Y-110869046D02*
X176895771Y-110964284D01*
X177467200Y-110535713D02*
X177514819Y-110630951D01*
X177514819Y-110630951D02*
X177514819Y-110869046D01*
X177514819Y-110869046D02*
X177467200Y-110964284D01*
X177467200Y-110964284D02*
X177371961Y-111011903D01*
X177371961Y-111011903D02*
X177276723Y-111011903D01*
X177276723Y-111011903D02*
X177181485Y-110964284D01*
X177181485Y-110964284D02*
X177133866Y-110869046D01*
X177133866Y-110869046D02*
X177133866Y-110630951D01*
X177133866Y-110630951D02*
X177086247Y-110535713D01*
X159916667Y-125907200D02*
X160059524Y-125954819D01*
X160059524Y-125954819D02*
X160297619Y-125954819D01*
X160297619Y-125954819D02*
X160392857Y-125907200D01*
X160392857Y-125907200D02*
X160440476Y-125859580D01*
X160440476Y-125859580D02*
X160488095Y-125764342D01*
X160488095Y-125764342D02*
X160488095Y-125669104D01*
X160488095Y-125669104D02*
X160440476Y-125573866D01*
X160440476Y-125573866D02*
X160392857Y-125526247D01*
X160392857Y-125526247D02*
X160297619Y-125478628D01*
X160297619Y-125478628D02*
X160107143Y-125431009D01*
X160107143Y-125431009D02*
X160011905Y-125383390D01*
X160011905Y-125383390D02*
X159964286Y-125335771D01*
X159964286Y-125335771D02*
X159916667Y-125240533D01*
X159916667Y-125240533D02*
X159916667Y-125145295D01*
X159916667Y-125145295D02*
X159964286Y-125050057D01*
X159964286Y-125050057D02*
X160011905Y-125002438D01*
X160011905Y-125002438D02*
X160107143Y-124954819D01*
X160107143Y-124954819D02*
X160345238Y-124954819D01*
X160345238Y-124954819D02*
X160488095Y-125002438D01*
X160821429Y-124954819D02*
X161059524Y-125954819D01*
X161059524Y-125954819D02*
X161250000Y-125240533D01*
X161250000Y-125240533D02*
X161440476Y-125954819D01*
X161440476Y-125954819D02*
X161678572Y-124954819D01*
X161964286Y-124954819D02*
X162583333Y-124954819D01*
X162583333Y-124954819D02*
X162250000Y-125335771D01*
X162250000Y-125335771D02*
X162392857Y-125335771D01*
X162392857Y-125335771D02*
X162488095Y-125383390D01*
X162488095Y-125383390D02*
X162535714Y-125431009D01*
X162535714Y-125431009D02*
X162583333Y-125526247D01*
X162583333Y-125526247D02*
X162583333Y-125764342D01*
X162583333Y-125764342D02*
X162535714Y-125859580D01*
X162535714Y-125859580D02*
X162488095Y-125907200D01*
X162488095Y-125907200D02*
X162392857Y-125954819D01*
X162392857Y-125954819D02*
X162107143Y-125954819D01*
X162107143Y-125954819D02*
X162011905Y-125907200D01*
X162011905Y-125907200D02*
X161964286Y-125859580D01*
X165666667Y-125907200D02*
X165809524Y-125954819D01*
X165809524Y-125954819D02*
X166047619Y-125954819D01*
X166047619Y-125954819D02*
X166142857Y-125907200D01*
X166142857Y-125907200D02*
X166190476Y-125859580D01*
X166190476Y-125859580D02*
X166238095Y-125764342D01*
X166238095Y-125764342D02*
X166238095Y-125669104D01*
X166238095Y-125669104D02*
X166190476Y-125573866D01*
X166190476Y-125573866D02*
X166142857Y-125526247D01*
X166142857Y-125526247D02*
X166047619Y-125478628D01*
X166047619Y-125478628D02*
X165857143Y-125431009D01*
X165857143Y-125431009D02*
X165761905Y-125383390D01*
X165761905Y-125383390D02*
X165714286Y-125335771D01*
X165714286Y-125335771D02*
X165666667Y-125240533D01*
X165666667Y-125240533D02*
X165666667Y-125145295D01*
X165666667Y-125145295D02*
X165714286Y-125050057D01*
X165714286Y-125050057D02*
X165761905Y-125002438D01*
X165761905Y-125002438D02*
X165857143Y-124954819D01*
X165857143Y-124954819D02*
X166095238Y-124954819D01*
X166095238Y-124954819D02*
X166238095Y-125002438D01*
X166571429Y-124954819D02*
X166809524Y-125954819D01*
X166809524Y-125954819D02*
X167000000Y-125240533D01*
X167000000Y-125240533D02*
X167190476Y-125954819D01*
X167190476Y-125954819D02*
X167428572Y-124954819D01*
X167761905Y-125050057D02*
X167809524Y-125002438D01*
X167809524Y-125002438D02*
X167904762Y-124954819D01*
X167904762Y-124954819D02*
X168142857Y-124954819D01*
X168142857Y-124954819D02*
X168238095Y-125002438D01*
X168238095Y-125002438D02*
X168285714Y-125050057D01*
X168285714Y-125050057D02*
X168333333Y-125145295D01*
X168333333Y-125145295D02*
X168333333Y-125240533D01*
X168333333Y-125240533D02*
X168285714Y-125383390D01*
X168285714Y-125383390D02*
X167714286Y-125954819D01*
X167714286Y-125954819D02*
X168333333Y-125954819D01*
X156066666Y-128004819D02*
X156066666Y-128719104D01*
X156066666Y-128719104D02*
X156019047Y-128861961D01*
X156019047Y-128861961D02*
X155923809Y-128957200D01*
X155923809Y-128957200D02*
X155780952Y-129004819D01*
X155780952Y-129004819D02*
X155685714Y-129004819D01*
X156971428Y-128338152D02*
X156971428Y-129004819D01*
X156733333Y-127957200D02*
X156495238Y-128671485D01*
X156495238Y-128671485D02*
X157114285Y-128671485D01*
X148866666Y-126654819D02*
X148866666Y-127369104D01*
X148866666Y-127369104D02*
X148819047Y-127511961D01*
X148819047Y-127511961D02*
X148723809Y-127607200D01*
X148723809Y-127607200D02*
X148580952Y-127654819D01*
X148580952Y-127654819D02*
X148485714Y-127654819D01*
X149771428Y-126654819D02*
X149580952Y-126654819D01*
X149580952Y-126654819D02*
X149485714Y-126702438D01*
X149485714Y-126702438D02*
X149438095Y-126750057D01*
X149438095Y-126750057D02*
X149342857Y-126892914D01*
X149342857Y-126892914D02*
X149295238Y-127083390D01*
X149295238Y-127083390D02*
X149295238Y-127464342D01*
X149295238Y-127464342D02*
X149342857Y-127559580D01*
X149342857Y-127559580D02*
X149390476Y-127607200D01*
X149390476Y-127607200D02*
X149485714Y-127654819D01*
X149485714Y-127654819D02*
X149676190Y-127654819D01*
X149676190Y-127654819D02*
X149771428Y-127607200D01*
X149771428Y-127607200D02*
X149819047Y-127559580D01*
X149819047Y-127559580D02*
X149866666Y-127464342D01*
X149866666Y-127464342D02*
X149866666Y-127226247D01*
X149866666Y-127226247D02*
X149819047Y-127131009D01*
X149819047Y-127131009D02*
X149771428Y-127083390D01*
X149771428Y-127083390D02*
X149676190Y-127035771D01*
X149676190Y-127035771D02*
X149485714Y-127035771D01*
X149485714Y-127035771D02*
X149390476Y-127083390D01*
X149390476Y-127083390D02*
X149342857Y-127131009D01*
X149342857Y-127131009D02*
X149295238Y-127226247D01*
X149266666Y-129054819D02*
X149266666Y-129769104D01*
X149266666Y-129769104D02*
X149219047Y-129911961D01*
X149219047Y-129911961D02*
X149123809Y-130007200D01*
X149123809Y-130007200D02*
X148980952Y-130054819D01*
X148980952Y-130054819D02*
X148885714Y-130054819D01*
X150219047Y-129054819D02*
X149742857Y-129054819D01*
X149742857Y-129054819D02*
X149695238Y-129531009D01*
X149695238Y-129531009D02*
X149742857Y-129483390D01*
X149742857Y-129483390D02*
X149838095Y-129435771D01*
X149838095Y-129435771D02*
X150076190Y-129435771D01*
X150076190Y-129435771D02*
X150171428Y-129483390D01*
X150171428Y-129483390D02*
X150219047Y-129531009D01*
X150219047Y-129531009D02*
X150266666Y-129626247D01*
X150266666Y-129626247D02*
X150266666Y-129864342D01*
X150266666Y-129864342D02*
X150219047Y-129959580D01*
X150219047Y-129959580D02*
X150171428Y-130007200D01*
X150171428Y-130007200D02*
X150076190Y-130054819D01*
X150076190Y-130054819D02*
X149838095Y-130054819D01*
X149838095Y-130054819D02*
X149742857Y-130007200D01*
X149742857Y-130007200D02*
X149695238Y-129959580D01*
%TO.C,R2*%
D11*
X138546359Y-114520000D02*
X138853641Y-114520000D01*
X138546359Y-115280000D02*
X138853641Y-115280000D01*
%TO.C,J7*%
X129465000Y-122315000D02*
X129465000Y-124915000D01*
X129465000Y-122315000D02*
X132125000Y-122315000D01*
X129465000Y-124915000D02*
X132125000Y-124915000D01*
X130795000Y-119715000D02*
X132125000Y-119715000D01*
X132125000Y-119715000D02*
X132125000Y-121045000D01*
X132125000Y-122315000D02*
X132125000Y-124915000D01*
%TO.C,R3*%
X146970000Y-116643641D02*
X146970000Y-116336359D01*
X147730000Y-116643641D02*
X147730000Y-116336359D01*
%TO.C,R13*%
X169413641Y-102620000D02*
X169106359Y-102620000D01*
X169413641Y-103380000D02*
X169106359Y-103380000D01*
%TO.C,U4*%
X145090000Y-126690000D02*
X146910000Y-126690000D01*
X145090000Y-126740000D02*
X145090000Y-126690000D01*
X145090000Y-129810000D02*
X145090000Y-129760000D01*
X146910000Y-126690000D02*
X146910000Y-126740000D01*
X146910000Y-127860000D02*
X146910000Y-128640000D01*
X146910000Y-129760000D02*
X146910000Y-129810000D01*
X146910000Y-129810000D02*
X145090000Y-129810000D01*
X144550000Y-126740000D02*
X144310000Y-126410000D01*
X144790000Y-126410000D01*
X144550000Y-126740000D01*
G36*
X144550000Y-126740000D02*
G01*
X144310000Y-126410000D01*
X144790000Y-126410000D01*
X144550000Y-126740000D01*
G37*
%TO.C,C5*%
X144140580Y-130240000D02*
X143859420Y-130240000D01*
X144140580Y-131260000D02*
X143859420Y-131260000D01*
%TO.C,J1*%
X132775000Y-108010000D02*
X134475000Y-108010000D01*
X132775000Y-117350000D02*
X134475000Y-117350000D01*
%TO.C,C4*%
X148640000Y-116587836D02*
X148640000Y-116372164D01*
X149360000Y-116587836D02*
X149360000Y-116372164D01*
%TO.C,R16*%
X137236359Y-124940000D02*
X137543641Y-124940000D01*
X137236359Y-125700000D02*
X137543641Y-125700000D01*
%TO.C,J3*%
X153870000Y-129290000D02*
X153870000Y-129170000D01*
X153870000Y-131830000D02*
X153870000Y-130500000D01*
X155200000Y-131830000D02*
X153870000Y-131830000D01*
X156530000Y-129170000D02*
X153870000Y-129170000D01*
X156530000Y-129290000D02*
X156530000Y-129170000D01*
%TO.C,C10*%
X164162164Y-129640000D02*
X164377836Y-129640000D01*
X164162164Y-130360000D02*
X164377836Y-130360000D01*
%TO.C,R4*%
X146970000Y-118903641D02*
X146970000Y-118596359D01*
X147730000Y-118903641D02*
X147730000Y-118596359D01*
%TO.C,D5*%
X142870000Y-122270000D02*
X144200000Y-122270000D01*
X142870000Y-123600000D02*
X142870000Y-122270000D01*
X145470000Y-122270000D02*
X148070000Y-122270000D01*
X145470000Y-124930000D02*
X145470000Y-122270000D01*
X145470000Y-124930000D02*
X148070000Y-124930000D01*
X148070000Y-124930000D02*
X148070000Y-122270000D01*
%TO.C,C6*%
X147540580Y-130290000D02*
X147259420Y-130290000D01*
X147540580Y-131310000D02*
X147259420Y-131310000D01*
%TO.C,R6*%
X151370000Y-117663641D02*
X151370000Y-117356359D01*
X152130000Y-117663641D02*
X152130000Y-117356359D01*
%TO.C,R8*%
X142870000Y-126663641D02*
X142870000Y-126356359D01*
X143630000Y-126663641D02*
X143630000Y-126356359D01*
%TO.C,C2*%
X144415580Y-120490000D02*
X144134420Y-120490000D01*
X144415580Y-121510000D02*
X144134420Y-121510000D01*
%TO.C,U1*%
X154560000Y-106250000D02*
X154560000Y-107250000D01*
X154560000Y-124250000D02*
X154560000Y-123250000D01*
X155310000Y-106250000D02*
X154560000Y-106250000D01*
X155310000Y-124250000D02*
X154560000Y-124250000D01*
X174060000Y-124250000D02*
X174060000Y-106250000D01*
X180060000Y-106250000D02*
X173310000Y-106250000D01*
X180060000Y-106250000D02*
X180060000Y-124250000D01*
X180060000Y-124250000D02*
X173310000Y-124250000D01*
%TO.C,D2*%
X137690000Y-112900000D02*
X137690000Y-114100000D01*
X139650000Y-112900000D02*
X137690000Y-112900000D01*
X139650000Y-114100000D02*
X137690000Y-114100000D01*
%TO.C,C7*%
X136840000Y-127772164D02*
X136840000Y-127987836D01*
X137560000Y-127772164D02*
X137560000Y-127987836D01*
%TO.C,C13*%
X161040000Y-103707836D02*
X161040000Y-103492164D01*
X161760000Y-103707836D02*
X161760000Y-103492164D01*
%TO.C,R5*%
X149870000Y-117663641D02*
X149870000Y-117356359D01*
X150630000Y-117663641D02*
X150630000Y-117356359D01*
%TO.C,C8*%
X141372164Y-130440000D02*
X141587836Y-130440000D01*
X141372164Y-131160000D02*
X141587836Y-131160000D01*
%TO.C,U3*%
X138977500Y-126640000D02*
X140797500Y-126640000D01*
X138977500Y-126690000D02*
X138977500Y-126640000D01*
X138977500Y-128590000D02*
X138977500Y-127810000D01*
X138977500Y-129760000D02*
X138977500Y-129710000D01*
X140797500Y-126640000D02*
X140797500Y-126690000D01*
X140797500Y-129710000D02*
X140797500Y-129760000D01*
X140797500Y-129760000D02*
X138977500Y-129760000D01*
X141577500Y-130040000D02*
X141097500Y-130040000D01*
X141337500Y-129710000D01*
X141577500Y-130040000D01*
G36*
X141577500Y-130040000D02*
G01*
X141097500Y-130040000D01*
X141337500Y-129710000D01*
X141577500Y-130040000D01*
G37*
%TO.C,C9*%
X171584420Y-103990000D02*
X171865580Y-103990000D01*
X171584420Y-105010000D02*
X171865580Y-105010000D01*
%TO.C,SW3*%
X159920000Y-128770000D02*
X159920000Y-126170000D01*
X159920000Y-131370000D02*
X159920000Y-130040000D01*
X161250000Y-131370000D02*
X159920000Y-131370000D01*
X162580000Y-126170000D02*
X159920000Y-126170000D01*
X162580000Y-128770000D02*
X159920000Y-128770000D01*
X162580000Y-128770000D02*
X162580000Y-126170000D01*
%TO.C,SW4*%
X162650000Y-102170000D02*
X163980000Y-102170000D01*
X162650000Y-103500000D02*
X162650000Y-102170000D01*
X165250000Y-102170000D02*
X167850000Y-102170000D01*
X165250000Y-104830000D02*
X165250000Y-102170000D01*
X165250000Y-104830000D02*
X167850000Y-104830000D01*
X167850000Y-104830000D02*
X167850000Y-102170000D01*
%TO.C,R10*%
X158346359Y-127120000D02*
X158653641Y-127120000D01*
X158346359Y-127880000D02*
X158653641Y-127880000D01*
%TO.C,SW2*%
X165670000Y-128770000D02*
X165670000Y-126170000D01*
X165670000Y-131370000D02*
X165670000Y-130040000D01*
X167000000Y-131370000D02*
X165670000Y-131370000D01*
X168330000Y-126170000D02*
X165670000Y-126170000D01*
X168330000Y-128770000D02*
X165670000Y-128770000D01*
X168330000Y-128770000D02*
X168330000Y-126170000D01*
%TO.C,R12*%
X141653641Y-124120000D02*
X141346359Y-124120000D01*
X141653641Y-124880000D02*
X141346359Y-124880000D01*
%TO.C,J2*%
X133170000Y-122250000D02*
X133170000Y-119650000D01*
X133170000Y-124850000D02*
X133170000Y-123520000D01*
X134500000Y-124850000D02*
X133170000Y-124850000D01*
X135830000Y-119650000D02*
X133170000Y-119650000D01*
X135830000Y-122250000D02*
X133170000Y-122250000D01*
X135830000Y-122250000D02*
X135830000Y-119650000D01*
%TO.C,R9*%
X164106359Y-127120000D02*
X164413641Y-127120000D01*
X164106359Y-127880000D02*
X164413641Y-127880000D01*
%TO.C,U2*%
X142135000Y-109465000D02*
X142190000Y-109465000D01*
X142135000Y-113585000D02*
X142135000Y-109465000D01*
X142190000Y-113585000D02*
X142135000Y-113585000D01*
X152200000Y-109465000D02*
X152255000Y-109465000D01*
X152255000Y-109465000D02*
X152255000Y-113585000D01*
X152255000Y-113585000D02*
X152200000Y-113585000D01*
X142185000Y-114125000D02*
X141855000Y-114365000D01*
X141855000Y-113885000D01*
X142185000Y-114125000D01*
G36*
X142185000Y-114125000D02*
G01*
X141855000Y-114365000D01*
X141855000Y-113885000D01*
X142185000Y-114125000D01*
G37*
%TO.C,D1*%
X137800000Y-109250000D02*
X137800000Y-111210000D01*
X137800000Y-111210000D02*
X139000000Y-111210000D01*
X139000000Y-109250000D02*
X139000000Y-111210000D01*
%TO.C,C12*%
X171122164Y-102640000D02*
X171337836Y-102640000D01*
X171122164Y-103360000D02*
X171337836Y-103360000D01*
%TO.C,U5*%
X135690000Y-102770000D02*
X137020000Y-102770000D01*
X135690000Y-104100000D02*
X135690000Y-102770000D01*
X138290000Y-102770000D02*
X145970000Y-102770000D01*
X138290000Y-105430000D02*
X138290000Y-102770000D01*
X138290000Y-105430000D02*
X145970000Y-105430000D01*
X145970000Y-105430000D02*
X145970000Y-102770000D01*
%TO.C,R1*%
X138636359Y-107620000D02*
X138943641Y-107620000D01*
X138636359Y-108380000D02*
X138943641Y-108380000D01*
%TO.C,D4*%
X137950000Y-122110000D02*
X137950000Y-118100000D01*
X137950000Y-122110000D02*
X139950000Y-122110000D01*
X139950000Y-122110000D02*
X139950000Y-118100000D01*
%TO.C,R15*%
X139246359Y-124940000D02*
X139553641Y-124940000D01*
X139246359Y-125700000D02*
X139553641Y-125700000D01*
%TO.C,J4*%
X153870000Y-125700000D02*
X153870000Y-125580000D01*
X153870000Y-128240000D02*
X153870000Y-126910000D01*
X155200000Y-128240000D02*
X153870000Y-128240000D01*
X156530000Y-125580000D02*
X153870000Y-125580000D01*
X156530000Y-125700000D02*
X156530000Y-125580000D01*
%TO.C,J6*%
X150270000Y-125720000D02*
X150270000Y-125600000D01*
X150270000Y-128260000D02*
X150270000Y-126930000D01*
X151600000Y-128260000D02*
X150270000Y-128260000D01*
X152930000Y-125600000D02*
X150270000Y-125600000D01*
X152930000Y-125720000D02*
X152930000Y-125600000D01*
%TO.C,J5*%
X150270000Y-129300000D02*
X150270000Y-129180000D01*
X150270000Y-131840000D02*
X150270000Y-130510000D01*
X151600000Y-131840000D02*
X150270000Y-131840000D01*
X152930000Y-129180000D02*
X150270000Y-129180000D01*
X152930000Y-129300000D02*
X152930000Y-129180000D01*
%TO.C,C14*%
X137440000Y-123387836D02*
X137440000Y-123172164D01*
X138160000Y-123387836D02*
X138160000Y-123172164D01*
%TO.C,C3*%
X147665580Y-120240000D02*
X147384420Y-120240000D01*
X147665580Y-121260000D02*
X147384420Y-121260000D01*
%TO.C,C1*%
X151127836Y-115640000D02*
X150912164Y-115640000D01*
X151127836Y-116360000D02*
X150912164Y-116360000D01*
%TO.C,Q1*%
X143840000Y-116690000D02*
X145360000Y-116690000D01*
X143840000Y-116740000D02*
X143840000Y-116690000D01*
X143840000Y-118640000D02*
X143840000Y-117860000D01*
X143840000Y-119810000D02*
X143840000Y-119760000D01*
X145360000Y-116690000D02*
X145360000Y-117690000D01*
X145360000Y-118810000D02*
X145360000Y-119810000D01*
X145360000Y-119810000D02*
X143840000Y-119810000D01*
X143540000Y-118200000D02*
X143060000Y-118200000D01*
X143300000Y-117870000D01*
X143540000Y-118200000D01*
G36*
X143540000Y-118200000D02*
G01*
X143060000Y-118200000D01*
X143300000Y-117870000D01*
X143540000Y-118200000D01*
G37*
%TO.C,R7*%
X147756359Y-125520000D02*
X148063641Y-125520000D01*
X147756359Y-126280000D02*
X148063641Y-126280000D01*
%TO.C,C11*%
X158412164Y-129640000D02*
X158627836Y-129640000D01*
X158412164Y-130360000D02*
X158627836Y-130360000D01*
%TO.C,D3*%
X138740000Y-115650000D02*
X138740000Y-116850000D01*
X140700000Y-115650000D02*
X138740000Y-115650000D01*
X140700000Y-116850000D02*
X138740000Y-116850000D01*
%TD*%
M02*
